<svg viewBox="0 0 330 200" xmlns="http://www.w3.org/2000/svg"><g><g><g><g><g><line x1="61.953125" y1="178" x2="56.953125" y2="178" style="visibility: inherit;" fill="rgb(0, 0, 0)" stroke="rgb(204, 204, 204)" stroke-width="1px"></line><line x1="61.953125" y1="164.30769230769232" x2="56.953125" y2="164.30769230769232" style="visibility: inherit;" fill="rgb(0, 0, 0)" stroke="rgb(204, 204, 204)" stroke-width="1px"></line><line x1="61.953125" y1="150.6153846153846" x2="56.953125" y2="150.6153846153846" style="visibility: inherit;" fill="rgb(0, 0, 0)" stroke="rgb(204, 204, 204)" stroke-width="1px"></line><line x1="61.953125" y1="136.92307692307693" x2="56.953125" y2="136.92307692307693" style="visibility: inherit;" fill="rgb(0, 0, 0)" stroke="rgb(204, 204, 204)" stroke-width="1px"></line><line x1="61.953125" y1="123.23076923076923" x2="56.953125" y2="123.23076923076923" style="visibility: inherit;" fill="rgb(0, 0, 0)" stroke="rgb(204, 204, 204)" stroke-width="1px"></line><line x1="61.953125" y1="109.53846153846155" x2="56.953125" y2="109.53846153846155" style="visibility: inherit;" fill="rgb(0, 0, 0)" stroke="rgb(204, 204, 204)" stroke-width="1px"></line><line x1="61.953125" y1="95.84615384615384" x2="56.953125" y2="95.84615384615384" style="visibility: inherit;" fill="rgb(0, 0, 0)" stroke="rgb(204, 204, 204)" stroke-width="1px"></line><line x1="61.953125" y1="82.15384615384616" x2="56.953125" y2="82.15384615384616" style="visibility: inherit;" fill="rgb(0, 0, 0)" stroke="rgb(204, 204, 204)" stroke-width="1px"></line><line x1="61.953125" y1="68.46153846153845" x2="56.953125" y2="68.46153846153845" style="visibility: inherit;" fill="rgb(0, 0, 0)" stroke="rgb(204, 204, 204)" stroke-width="1px"></line><line x1="61.953125" y1="54.769230769230774" x2="56.953125" y2="54.769230769230774" style="visibility: inherit;" fill="rgb(0, 0, 0)" stroke="rgb(204, 204, 204)" stroke-width="1px"></line><line x1="61.953125" y1="41.07692307692309" x2="56.953125" y2="41.07692307692309" style="visibility: inherit;" fill="rgb(0, 0, 0)" stroke="rgb(204, 204, 204)" stroke-width="1px"></line><line x1="61.953125" y1="27.384615384615387" x2="56.953125" y2="27.384615384615387" style="visibility: inherit;" fill="rgb(0, 0, 0)" stroke="rgb(204, 204, 204)" stroke-width="1px"></line><line x1="61.953125" y1="13.692307692307702" x2="56.953125" y2="13.692307692307702" style="visibility: inherit;" fill="rgb(0, 0, 0)" stroke="rgb(204, 204, 204)" stroke-width="1px"></line><line x1="61.953125" y1="0" x2="56.953125" y2="0" style="visibility: inherit;" fill="rgb(0, 0, 0)" stroke="rgb(204, 204, 204)" stroke-width="1px"></line></g><g transform="translate(51.953125, 0)"><text x="0" y="178" dx="0em" dy="0.3em" style="text-anchor: end; visibility: hidden; font-family: Roboto, sans-serif; font-size: 12px; font-weight: 200;" fill="rgb(50, 49, 63)" stroke="none" stroke-width="1px">-0.02</text><text x="0" y="164.30769230769232" dx="0em" dy="0.3em" style="text-anchor: end; visibility: inherit; font-family: Roboto, sans-serif; font-size: 12px; font-weight: 200;" fill="rgb(50, 49, 63)" stroke="none" stroke-width="1px">0</text><text x="0" y="150.6153846153846" dx="0em" dy="0.3em" style="text-anchor: end; visibility: hidden; font-family: Roboto, sans-serif; font-size: 12px; font-weight: 200;" fill="rgb(50, 49, 63)" stroke="none" stroke-width="1px">0.02</text><text x="0" y="136.92307692307693" dx="0em" dy="0.3em" style="text-anchor: end; visibility: inherit; font-family: Roboto, sans-serif; font-size: 12px; font-weight: 200;" fill="rgb(50, 49, 63)" stroke="none" stroke-width="1px">0.04</text><text x="0" y="123.23076923076923" dx="0em" dy="0.3em" style="text-anchor: end; visibility: hidden; font-family: Roboto, sans-serif; font-size: 12px; font-weight: 200;" fill="rgb(50, 49, 63)" stroke="none" stroke-width="1px">0.06</text><text x="0" y="109.53846153846155" dx="0em" dy="0.3em" style="text-anchor: end; visibility: inherit; font-family: Roboto, sans-serif; font-size: 12px; font-weight: 200;" fill="rgb(50, 49, 63)" stroke="none" stroke-width="1px">0.08</text><text x="0" y="95.84615384615384" dx="0em" dy="0.3em" style="text-anchor: end; visibility: hidden; font-family: Roboto, sans-serif; font-size: 12px; font-weight: 200;" fill="rgb(50, 49, 63)" stroke="none" stroke-width="1px">0.1</text><text x="0" y="82.15384615384616" dx="0em" dy="0.3em" style="text-anchor: end; visibility: inherit; font-family: Roboto, sans-serif; font-size: 12px; font-weight: 200;" fill="rgb(50, 49, 63)" stroke="none" stroke-width="1px">0.12</text><text x="0" y="68.46153846153845" dx="0em" dy="0.3em" style="text-anchor: end; visibility: hidden; font-family: Roboto, sans-serif; font-size: 12px; font-weight: 200;" fill="rgb(50, 49, 63)" stroke="none" stroke-width="1px">0.14</text><text x="0" y="54.769230769230774" dx="0em" dy="0.3em" style="text-anchor: end; visibility: inherit; font-family: Roboto, sans-serif; font-size: 12px; font-weight: 200;" fill="rgb(50, 49, 63)" stroke="none" stroke-width="1px">0.16</text><text x="0" y="41.07692307692309" dx="0em" dy="0.3em" style="text-anchor: end; visibility: hidden; font-family: Roboto, sans-serif; font-size: 12px; font-weight: 200;" fill="rgb(50, 49, 63)" stroke="none" stroke-width="1px">0.18</text><text x="0" y="27.384615384615387" dx="0em" dy="0.3em" style="text-anchor: end; visibility: inherit; font-family: Roboto, sans-serif; font-size: 12px; font-weight: 200;" fill="rgb(50, 49, 63)" stroke="none" stroke-width="1px">0.2</text><text x="0" y="13.692307692307702" dx="0em" dy="0.3em" style="text-anchor: end; visibility: hidden; font-family: Roboto, sans-serif; font-size: 12px; font-weight: 200;" fill="rgb(50, 49, 63)" stroke="none" stroke-width="1px">0.22</text><text x="0" y="0" dx="0em" dy="0.3em" style="text-anchor: end; visibility: hidden; font-family: Roboto, sans-serif; font-size: 12px; font-weight: 200;" fill="rgb(50, 49, 63)" stroke="none" stroke-width="1px">0.24</text></g><line x1="61.953125" y1="0" x2="61.953125" y2="178" fill="rgb(0, 0, 0)" stroke="rgb(204, 204, 204)" stroke-width="1px"></line></g></g><g transform="translate(61, 0)" clip-path="url(#clip_0)"><clipPath id="clip_0"><rect width="268" height="178"></rect></clipPath><g><g><g><line x1="0" y1="0" x2="0" y2="178" fill="rgb(0, 0, 0)" stroke="rgb(60, 60, 60)" stroke-width="1px" opacity="0.25"></line><line x1="22.337239583333332" y1="0" x2="22.337239583333332" y2="178" fill="rgb(0, 0, 0)" stroke="rgb(60, 60, 60)" stroke-width="1px" opacity="0.25"></line><line x1="44.674479166666664" y1="0" x2="44.674479166666664" y2="178" fill="rgb(0, 0, 0)" stroke="rgb(60, 60, 60)" stroke-width="1px" opacity="0.25"></line><line x1="67.01171875" y1="0" x2="67.01171875" y2="178" fill="rgb(0, 0, 0)" stroke="rgb(60, 60, 60)" stroke-width="1px" opacity="0.25"></line><line x1="89.34895833333333" y1="0" x2="89.34895833333333" y2="178" fill="rgb(0, 0, 0)" stroke="rgb(60, 60, 60)" stroke-width="1px" opacity="0.25"></line><line x1="111.68619791666667" y1="0" x2="111.68619791666667" y2="178" fill="rgb(0, 0, 0)" stroke="rgb(60, 60, 60)" stroke-width="1px" opacity="0.25"></line><line x1="134.0234375" y1="0" x2="134.0234375" y2="178" fill="rgb(0, 0, 0)" stroke="rgb(60, 60, 60)" stroke-width="1px" opacity="0.25"></line><line x1="156.36067708333334" y1="0" x2="156.36067708333334" y2="178" fill="rgb(0, 0, 0)" stroke="rgb(60, 60, 60)" stroke-width="1px" opacity="0.25"></line><line x1="178.69791666666666" y1="0" x2="178.69791666666666" y2="178" fill="rgb(0, 0, 0)" stroke="rgb(60, 60, 60)" stroke-width="1px" opacity="0.25"></line><line x1="201.03515625" y1="0" x2="201.03515625" y2="178" fill="rgb(0, 0, 0)" stroke="rgb(60, 60, 60)" stroke-width="1px" opacity="0.25"></line><line x1="223.37239583333334" y1="0" x2="223.37239583333334" y2="178" fill="rgb(0, 0, 0)" stroke="rgb(60, 60, 60)" stroke-width="1px" opacity="0.25"></line><line x1="245.70963541666666" y1="0" x2="245.70963541666666" y2="178" fill="rgb(0, 0, 0)" stroke="rgb(60, 60, 60)" stroke-width="1px" opacity="0.25"></line><line x1="268.046875" y1="0" x2="268.046875" y2="178" fill="rgb(0, 0, 0)" stroke="rgb(60, 60, 60)" stroke-width="1px" opacity="0.25"></line></g><g><line x1="0" y1="178" x2="268.046875" y2="178" fill="rgb(0, 0, 0)" stroke="rgb(60, 60, 60)" stroke-width="1px" opacity="0.25"></line><line x1="0" y1="164.30769230769232" x2="268.046875" y2="164.30769230769232" fill="rgb(0, 0, 0)" stroke="rgb(60, 60, 60)" stroke-width="1px" opacity="0.25"></line><line x1="0" y1="150.6153846153846" x2="268.046875" y2="150.6153846153846" fill="rgb(0, 0, 0)" stroke="rgb(60, 60, 60)" stroke-width="1px" opacity="0.25"></line><line x1="0" y1="136.92307692307693" x2="268.046875" y2="136.92307692307693" fill="rgb(0, 0, 0)" stroke="rgb(60, 60, 60)" stroke-width="1px" opacity="0.25"></line><line x1="0" y1="123.23076923076923" x2="268.046875" y2="123.23076923076923" fill="rgb(0, 0, 0)" stroke="rgb(60, 60, 60)" stroke-width="1px" opacity="0.25"></line><line x1="0" y1="109.53846153846155" x2="268.046875" y2="109.53846153846155" fill="rgb(0, 0, 0)" stroke="rgb(60, 60, 60)" stroke-width="1px" opacity="0.25"></line><line x1="0" y1="95.84615384615384" x2="268.046875" y2="95.84615384615384" fill="rgb(0, 0, 0)" stroke="rgb(60, 60, 60)" stroke-width="1px" opacity="0.25"></line><line x1="0" y1="82.15384615384616" x2="268.046875" y2="82.15384615384616" fill="rgb(0, 0, 0)" stroke="rgb(60, 60, 60)" stroke-width="1px" opacity="0.25"></line><line x1="0" y1="68.46153846153845" x2="268.046875" y2="68.46153846153845" fill="rgb(0, 0, 0)" stroke="rgb(60, 60, 60)" stroke-width="1px" opacity="0.25"></line><line x1="0" y1="54.769230769230774" x2="268.046875" y2="54.769230769230774" fill="rgb(0, 0, 0)" stroke="rgb(60, 60, 60)" stroke-width="1px" opacity="0.25"></line><line x1="0" y1="41.07692307692309" x2="268.046875" y2="41.07692307692309" fill="rgb(0, 0, 0)" stroke="rgb(60, 60, 60)" stroke-width="1px" opacity="0.25"></line><line x1="0" y1="27.384615384615387" x2="268.046875" y2="27.384615384615387" fill="rgb(0, 0, 0)" stroke="rgb(60, 60, 60)" stroke-width="1px" opacity="0.25"></line><line x1="0" y1="13.692307692307702" x2="268.046875" y2="13.692307692307702" fill="rgb(0, 0, 0)" stroke="rgb(60, 60, 60)" stroke-width="1px" opacity="0.25"></line><line x1="0" y1="0" x2="268.046875" y2="0" fill="rgb(0, 0, 0)" stroke="rgb(60, 60, 60)" stroke-width="1px" opacity="0.25"></line></g></g></g><g><g><line x1="0" y1="164.30769230769232" x2="268.046875" y2="164.30769230769232" fill="rgb(0, 0, 0)" stroke="rgb(153, 153, 153)" stroke-width="1.5px"></line></g></g><g><g><line x1="22.337239583333332" y1="0" x2="22.337239583333332" y2="178" fill="rgb(0, 0, 0)" stroke="rgb(153, 153, 153)" stroke-width="1.5px"></line></g></g><g><g><g><g><g><path stroke="rgb(255, 112, 67)" stroke-width="2px" d="M25.017708333333335,-3.568754623127234L25.464453125,1.0369539652057773L25.911197916666666,4.429225016485666L26.357942708333333,6.922662520429436L26.8046875,9.888440086185836L27.251432291666667,11.823040626951677L27.698177083333334,14.03332333568091L28.144921874999998,15.871891584543718L28.59166666666667,17.605610345930497L29.038411458333336,19.081461722744272L29.48515625,21.291219765965103L29.931901041666666,22.479593883884185L30.378645833333334,24.303632605841525L30.825390625,25.660745795233435L31.272135416666668,27.56128466141297L31.71888020833333,29.619652547343346L32.165625,30.891957233435416L32.612369791666666,32.42397615171399L33.05911458333333,34.06756534513715L33.505859375,35.716300434525216L33.95260416666667,37.39773693088142L34.399348958333334,38.91028598688974L34.84609375,40.660321517640675L35.29283854166666,42.047438904797986L35.739583333333336,43.817094274057L36.186328125,45.665656523006255L36.63307291666666,47.65084702495499L37.07981770833334,49.4226751227238L37.526562500000004,50.84829065998197L37.973307291666664,52.28860134152215L38.42005208333334,54.363648129191645L38.866796875,56.16832992714553L39.313541666666666,57.98006524923599L39.76028645833333,59.993233003777L40.20703125,61.452251278750055L40.65377604166667,63.162129791976945L41.10052083333333,65.12772705892434L41.547265625,66.67373371683651L41.99401041666667,68.38728254011443L42.44075520833333,70.36070101485514L42.8875,71.90165586355191L43.33424479166666,73.80510150293681L43.78098958333333,76.11816767535312L44.227734375000004,77.59779901315993L44.674479166666664,79.75877179418885L45.12122395833333,81.01585908683515L45.567968750000006,83.30583861488087L46.014713541666666,85.0063110714865L46.46145833333333,86.97570115160269L46.908203125,88.78876305626387L47.35494791666667,90.69749966726216L47.801692708333334,92.352270999804L48.2484375,93.78740425248859L48.69518229166667,95.79957157988693L49.14192708333333,97.90997360855417L49.588671875,99.51657165253668L50.03541666666667,101.4409261360254L50.48216145833333,102.99633379985883L50.92890625,104.49468792618694L51.37565104166667,106.16427963460316L51.82239583333333,107.80617261176056L52.269140625,109.3898994597938L52.715885416666666,110.62637513761747L53.16263020833333,112.52456704034502L53.609375,113.43019077149869L54.05611979166667,115.031585556077L54.502864583333334,116.1275217415503L54.949609374999994,117.64746860201976L55.39635416666667,119.11142295414011L55.843098958333336,120.76238960696158L56.289843749999996,122.51015213716381L56.73658854166667,123.58088584021814L57.18333333333334,125.48742024512894L57.630078125,127.11988257598578L58.07682291666667,127.47965881595798L58.52356770833333,128.59961880436643L58.9703125,130.29446891430908L59.41705729166667,130.68839699868542L59.86380208333333,132.24023739190028L60.310546875,133.65792359525636L60.75729166666667,134.70657114202737L61.204036458333334,136.31971073893146L61.65078125,137.29003063060534L62.09752604166666,138.51149848554226L62.544270833333336,139.4262251408733L62.991015624999996,139.0900489154865L63.43776041666666,140.61761644906414L63.88450520833334,142.39354795930294L64.33125,142.4434870808526L64.77799479166667,143.45788925739276L65.22473958333333,143.43388106941165L65.671484375,145.0326107379321L66.11822916666667,146.53468652218493L66.56497395833333,147.08477681024664L67.01171875,147.53714416731748L67.45846354166666,148.42758274537857L67.90520833333333,148.51619515075728L68.351953125,148.8785352793142L68.79869791666667,150.26551553711738L69.24544270833334,151.18243023288744L69.6921875,151.58279305371985L70.13893229166666,152.43687048909916L70.58567708333332,152.44726686117838L71.032421875,152.9963192039688L71.47916666666667,154.03509750353135L71.92591145833333,150.53377108093815L72.37265625,152.43029212945575L72.81940104166667,154.16487435568772L73.26614583333333,155.56933215370645L73.712890625,156.51516989547076L74.15963541666667,157.24326377892257L74.60638020833333,157.84978079300151L75.05312500000001,158.01851722552837L75.49986979166667,156.10103836536774L75.94661458333333,148.488252887563L76.39335937499999,150.71099216193736L76.84010416666668,154.45458707098095L77.28684895833334,156.99392562233078L77.73359375,158.5935976092493L78.18033854166667,159.48989134601987L78.62708333333333,160.08080626081463L79.07382812499999,160.25890423703123L79.52057291666667,160.24969574621002L79.96731770833334,152.01298259429694L80.4140625,152.320831644775L80.86080729166667,155.53470900372312L81.30755208333333,158.01972789153612L81.754296875,159.64862713652485L82.20104166666665,160.66759901198708L82.64778645833334,161.24994230084744L83.09453125,161.68990615686917L83.54127604166666,162.0077487294685L83.98802083333334,162.1985803898655L84.434765625,155.8272611993289L84.88151041666666,152.38972308576365L85.32825520833335,155.81041447677217L85.775,158.38098728784186L86.22174479166667,160.0479186612161L86.66848958333333,161.14023720480523L87.115234375,161.85994249847545L87.56197916666666,162.20867686720246L88.00872395833333,162.49000607675436L88.45546875000001,162.7497022493153L88.90221354166667,162.9064476575965L89.34895833333333,161.66848154234054L89.795703125,151.08904213940784L90.24244791666666,155.3495303765232L90.68919270833332,158.33238215164533L91.13593750000001,160.21283252786753L91.58268229166667,161.41426834017727L92.02942708333333,162.17430737276618L92.47617187499999,162.6585439832373L92.92291666666667,162.97111715193083L93.36966145833333,163.16728912171038L93.81640625,163.30438624224334L94.26315104166667,162.9012291278823L94.70989583333333,151.7472434424574L95.156640625,155.3885814504866L95.60338541666667,157.94803325759253L96.05013020833333,159.89347497058003L96.496875,161.28832532331847L96.94361979166668,162.1697068312284L97.39036458333334,162.72469630841496L97.837109375,163.08686573510698L98.28385416666666,163.31272020720976L98.73059895833333,163.4630684195724L99.17734375,163.56076743106672L99.62408854166667,163.63644815709387L100.07083333333334,163.68887966830567L100.517578125,147.0391540350673L100.96432291666666,150.23448766705187L101.41106770833333,155.18936502712427L101.8578125,158.41886518227113L102.30455729166667,160.4240115143653L102.75130208333334,161.67332971023583L103.198046875,162.4553472878506L103.64479166666666,162.93837269702203L104.09153645833332,163.25471545247788L104.53828125,163.4633546916229L104.98502604166667,163.60080925037L105.43177083333333,163.68106006899512L105.878515625,163.74775313048295L106.32526041666667,163.80357837923918L106.77200520833333,163.84762639312214L107.21875,163.87714520742887L107.66549479166667,163.90230398855908L108.11223958333333,163.91559152412069L108.55898437500001,148.70253485711697L109.00572916666667,150.727197489963L109.45247395833333,155.38038911856657L109.89921874999999,158.63188271399267L110.34596354166668,160.63658914164404L110.79270833333334,161.87479873360368L111.239453125,162.6380990687435L111.68619791666667,163.11727338607562L112.13294270833333,163.42235091999015L112.57968749999999,163.61799613302907L113.02643229166667,163.74656189580577L113.47317708333334,163.8369756447513L113.919921875,163.9019309617667L114.36666666666667,163.94672035064647L114.81341145833333,163.97948740370387L115.26015625,164.004036759092L115.70690104166665,164.02265864365663L116.15364583333334,164.04252969976372L116.600390625,164.05476109811448L117.04713541666666,164.07434234018544L117.49388020833334,164.08696740776293L117.940625,164.0929000761726L118.38736979166666,163.53538161608367L118.83411458333335,146.21528272133892L119.280859375,152.2826446162617L119.72760416666667,156.7796914667971L120.17434895833333,159.59437363641226L120.62109375,161.31618555627267L121.06783854166666,162.36711086049348L121.51458333333333,163.01132045415162L121.96132812500001,163.4094626996234L122.40807291666667,163.65890886556772L122.85481770833333,163.81686825305817L123.3015625,163.9195646669178L123.74830729166666,163.98800317744937L124.19505208333332,164.03370695938384L124.64179687500001,164.0657547213633L125.08854166666667,164.09031471600292L125.53528645833333,164.11126254086892L125.98203124999999,164.1278430128659L126.42877604166667,164.14192205286895L126.87552083333333,164.15317566018868L127.322265625,164.16347761027404L127.76901041666667,164.17153272398443L128.21575520833332,164.17749618131407L128.6625,160.33985541270346L129.10924479166667,148.2733635453445L129.55598958333334,154.0333237277765L130.002734375,157.8804944855242L130.44947916666666,160.31784317271982L130.89622395833334,161.7995177441436L131.34296875,162.6997435859622L131.78971354166666,163.24997408875925L132.23645833333333,163.5875772495527L132.683203125,163.79791530428167L133.12994791666665,163.92969880717607L133.57669270833333,164.01395835695251L134.0234375,164.0691477887084L134.47018229166667,164.10673166958557L134.91692708333332,164.13343134886148L135.363671875,164.15377604979565L135.81041666666667,164.16796775204108L136.25716145833331,164.18001593770518L136.70390625,164.19043401348762L137.1506510416667,164.1990648918554L137.59739583333334,164.20584808109015L138.044140625,164.2123163146301L138.49088541666669,164.21718821716675L138.93763020833333,164.22366993127642L139.384375,164.22776525051333L139.83111979166665,146.3508493106192L140.27786458333333,150.25626208854698L140.724609375,155.31572232238892L141.17135416666665,158.77676211854094L141.61809895833332,160.88169174243515L142.06484375,162.15848905440768L142.51158854166667,162.9346402190151L142.95833333333334,163.40830675571172L143.40507812500002,163.69978292745677L143.85182291666666,163.8797444466674L144.29856770833334,163.99276312663682L144.7453125,164.06548552702472L145.19205729166666,164.11250334016646L145.63880208333333,164.1440214150156L146.085546875,164.1664558124557L146.53229166666665,164.18270607662075L146.97903645833333,164.19499821386478L147.42578125,164.2053021540893L147.87252604166665,164.21331320240455L148.31927083333335,164.22052048460213L148.76601562500002,164.22661183258518L149.21276041666667,164.2318828062513L149.65950520833334,164.23644811947617L150.10625000000002,164.24151684256657L150.55299479166666,164.2448974956123L150.99973958333334,164.24877611046963L151.44648437499998,164.25320250028022L151.89322916666666,164.2564908251696L152.33997395833333,164.25880975673934L152.78671874999998,152.83707796929176L153.23346354166665,145.24363895158248L153.68020833333335,151.22757421242667L154.126953125,156.25347112626997L154.57369791666667,159.37895325349422L155.02044270833335,161.2697230129766L155.4671875,162.41271700267612L155.91393229166667,163.10586421328128L156.36067708333334,163.52710431210457L156.807421875,163.78494663498836L157.25416666666666,163.9434211281176L157.70091145833334,164.04274935590425L158.14765624999998,164.1059500987402L158.59440104166666,164.14717108121496L159.04114583333333,164.1748091080644L159.487890625,164.19409368491839L159.93463541666668,164.20811573938897L160.38138020833335,164.21852968809816L160.828125,164.2271190612689L161.27486979166667,164.23396015738737L161.72161458333335,164.2400029209775L162.168359375,164.24493978697546L162.61510416666667,164.24987657872495L163.06184895833331,164.25425788263448L163.50859375,164.25793832869232L163.95533854166666,164.26131138283344L164.4020833333333,164.26478471911295L164.848828125,164.26797055357426L165.29557291666669,164.2707590440711L165.74231770833333,164.27317585630945L166.1890625,164.27366692488775L166.63580729166668,164.2735545096756L167.08255208333333,164.27693123913116L167.529296875,164.2798928090579L167.97604166666667,164.28098385322835L168.42278645833332,143.22736117301247L168.86953125,149.53009792245453L169.31627604166667,155.21829851026206L169.76302083333331,158.7718333026799L170.209765625,160.92023461534134L170.6565104166667,162.217641191677L171.10325520833334,163.00181879513357L171.55,163.47778462068055L171.99674479166669,163.768090927097L172.44348958333333,163.94613259583426L172.890234375,164.05556165791876L173.33697916666665,164.12416198144015L173.78372395833333,164.16825616932738L174.23046875,164.19713767157776L174.67721354166665,164.2165626138053L175.12395833333332,164.23018742148952L175.570703125,164.24004014859736L176.01744791666667,164.24769673053893L176.46419270833334,164.25377082305994L176.91093750000002,164.25867500338583L177.35768229166666,164.2628860193038L177.80442708333334,164.26656439242672L178.251171875,164.27000231272868L178.69791666666666,164.27294059722126L179.14466145833333,164.2755765857021L179.59140625,164.27779479126542L180.03815104166665,164.28023464953833L180.48489583333333,164.28204152734236L180.931640625,164.28408787223515L181.37838541666665,164.28578207097547L181.82513020833335,164.2874373839762L182.27187500000002,164.2889742379395L182.71861979166667,164.29036054539858L183.16536458333334,164.29153607925093L183.61210937500002,164.29278741039136L184.05885416666666,164.29348657013242L184.50559895833334,164.29462216696794L184.95234374999998,164.29532560886554L185.39908854166666,164.29598465912997L185.84583333333333,143.908905897505L186.29257812499998,150.3202407613543L186.73932291666665,155.78128923568752L187.18606770833335,159.1350000243519L187.6328125,161.1567001163869L188.07955729166667,162.37702942897417L188.52630208333335,163.113967735216L188.973046875,163.55953769271824L189.41979166666667,163.83001013674456L189.86653645833334,163.9949631731876L190.31328125,164.09630270438248L190.76002604166666,164.1588855519863L191.20677083333334,164.19845147418607L191.65351562499998,164.2238691589147L192.10026041666666,164.24071419354073L192.54700520833333,164.2521227505991L192.99375,164.26014564645504L193.44049479166668,164.26600564204722L193.88723958333335,164.27058414128038L194.333984375,164.27431462976696L194.78072916666667,164.27746665624258L195.22747395833335,164.2800932724061L195.67421875,164.28232406795763L196.12096354166667,164.2843369947075L196.56770833333331,164.28624459250724L197.014453125,164.28787672269428L197.46119791666666,164.2894431426687L197.9079427083333,164.2908998144635L198.3546875,164.29215863319445L198.80143229166669,164.2932807423958L199.24817708333333,164.29439107620166L199.694921875,164.29529001859723L200.14166666666668,164.2962119255069L200.58841145833333,164.29709787426546L201.03515625,164.2979174524075L201.48190104166667,164.29853990334715L201.92864583333332,164.2992833161028L202.375390625,164.29997934566492L202.82213541666667,164.30054174267633L203.26888020833331,164.3009707043061L203.715625,164.3010876732904L204.1623697916667,143.10735401489137L204.60911458333334,150.49420376395327L205.055859375,155.85894480493718L205.50260416666669,159.19863688409973L205.94934895833333,161.20927825922135L206.39609375,162.4202160563451L206.84283854166665,163.15026735675502L207.28958333333333,163.59057906528952L207.736328125,163.85705161538013L208.18307291666665,164.01847188953946L208.62981770833332,164.11723051916513L209.0765625,164.17780033187236L209.52330729166667,164.2154576205421L209.97005208333334,164.2390889269553L210.41679687500002,164.25423618295102L210.86354166666666,164.2642485193161L211.31028645833334,164.27117094963927L211.75703125,164.2761021236816L212.20377604166666,164.2797559670752L212.65052083333333,164.28259707416407L213.097265625,164.28490090248422L213.54401041666665,164.28687129624078L213.99075520833333,164.28861070277893L214.4375,164.2901084831801L214.88424479166665,164.29143548561274L215.33098958333335,164.29263900394992L215.77773437500002,164.29381561256983L216.22447916666667,164.29489548748532L216.67122395833334,164.29588565324525L217.11796875000002,164.29674032147247L217.56471354166666,164.29750648707252L218.01145833333334,164.29833015537943L218.45820312499998,164.29902429232732L218.90494791666666,164.2997335516677L219.35169270833333,164.30033064547814L219.79843749999998,164.3008259085724L220.24518229166665,164.30136590649553L220.69192708333335,164.3018557735677L221.138671875,164.3022506214273L221.58541666666667,164.30266450137955L222.03216145833335,164.30302045199278L222.47890625,164.30327775035946L222.92565104166667,164.30355635832979L223.37239583333334,164.30385764105415L223.819140625,148.6262055441154L224.26588541666666,145.52326180181765L224.71263020833334,152.05430661295205L225.15937499999998,156.8626658385148L225.60611979166666,159.8045490769494L226.05286458333333,161.57860053497387L226.499609375,162.64744517830783L226.94635416666668,163.29135640173152L227.39309895833335,163.67980499075767L227.83984375,163.9149229241128L228.28658854166667,164.0573253020719L228.73333333333335,164.14398885631377L229.180078125,164.19705529387267L229.62682291666667,164.22992459286436L230.07356770833331,164.25051070202443L230.5203125,164.26352629209325L230.96705729166666,164.27214002452814L231.4138020833333,164.2780841442533L231.860546875,164.28217268462333L232.30729166666669,164.28526232020113L232.75403645833333,164.28764990387407L233.20078125,164.28958842077859L233.64752604166668,164.2911603889922L234.09427083333333,164.29257139283314L234.541015625,164.29384783665057L234.98776041666667,164.29493886783752L235.43450520833332,164.29593454182697L235.88125,164.2968950021076L236.32799479166667,164.29776159197908L236.77473958333331,164.29854822614746L237.221484375,164.29926346339516L237.6682291666667,164.2999340239176L238.11497395833334,164.30052040581396L238.56171875,164.3010854282168L239.00846354166669,164.30159728370228L239.45520833333333,164.3020819653553L239.901953125,164.30252630577135L240.34869791666665,164.30294116631995L240.79544270833333,164.3032932652694L241.2421875,164.30364700731593L241.68893229166665,164.30395354366408L242.13567708333332,164.30423954524838L242.582421875,164.30449763372027L243.02916666666667,164.30474947457614L243.47591145833334,164.30497706012432L243.92265625000002,164.30520360563776L244.36940104166666,164.3053896727248L244.81614583333334,164.30557430291486L245.262890625,164.30574786840634" style="fill: none;" fill="none"></path></g></g></g></g><g opacity="0.2"><g><g><g><path stroke="rgb(255, 112, 67)" stroke-width="2px" d="M24.12421875,-1.2222151297789323L24.570963541666664,2.11860331663718L25.017708333333335,4.065520836756777L25.464453125,7.752121301797726L25.911197916666666,9.432165902394525L26.357942708333333,10.625126618605403L26.8046875,14.310207050580255L27.251432291666667,14.714413427389607L27.698177083333334,17.341530442237875L28.144921874999998,18.626142011238983L28.59166666666667,20.204150566687954L29.038411458333336,21.294197903229644L29.48515625,24.604921735250052L29.931901041666666,24.261853332702938L30.378645833333334,27.039412814837245L30.825390625,27.696291533800284L31.272135416666668,30.41198873061401L31.71888020833333,32.7071366447669L32.165625,32.80038914313684L32.612369791666666,34.72198638090722L33.05911458333333,36.53293745334332L33.505859375,38.18939603750524L33.95260416666667,39.91988737308063L34.399348958333334,41.17910724878313L34.84609375,43.28537320173705L35.29283854166666,44.12811421889526L35.739583333333336,46.47157674110854L36.186328125,48.438499528628135L36.63307291666666,50.62863254088623L37.07981770833334,52.08041714246457L37.526562500000004,52.98671390460088L37.973307291666664,54.44906732669244L38.42005208333334,57.47621827859146L38.866796875,58.87535260732358L39.313541666666666,60.69766822228066L39.76028645833333,63.01298462886078L40.20703125,63.64077868828408L40.65377604166667,65.72694755976018L41.10052083333333,68.07612295792654L41.547265625,68.99274370303522L41.99401041666667,70.95760577458603L42.44075520833333,73.32082872665848L42.8875,74.21308813645291L43.33424479166666,76.66026996190732L43.78098958333333,79.58776693389967L44.227734375000004,79.81724601984025L44.674479166666664,83.00023096570604L45.12122395833333,82.90149002579543L45.567968750000006,86.74080790693944L46.014713541666666,87.5570197563905L46.46145833333333,89.92978627177386L46.908203125,91.50835591325395L47.35494791666667,93.56060458375856L47.801692708333334,94.83442799861615L48.2484375,95.94010413151523L48.69518229166667,98.81782257098416L49.14192708333333,101.07557665155485L49.588671875,101.92646871851042L50.03541666666667,104.32745786125844L50.48216145833333,105.32944529560896L50.92890625,106.74221911567906L51.37565104166667,108.66866719722748L51.82239583333333,110.2690120774966L52.269140625,111.76548973184367L52.715885416666666,112.48108865435307L53.16263020833333,115.37185489443632L53.609375,114.78862636822919L54.05611979166667,117.43367773294449L54.502864583333334,117.77142601976027L54.949609374999994,119.92738889272397L55.39635416666667,121.30735448232065L55.843098958333336,123.23883958619376L56.289843749999996,125.13179593246718L56.73658854166667,125.18698639479967L57.18333333333334,128.34722185249512L57.630078125,129.56857607227107L58.07682291666667,128.0193231759163L58.52356770833333,130.27955878697907L58.9703125,132.83674407922302L59.41705729166667,131.27928912524993L59.86380208333333,134.56799798172253L60.310546875,135.7844529002905L60.75729166666667,136.27954246218388L61.204036458333334,138.73942013428763L61.65078125,138.74551046811618L62.09752604166666,140.34370026794764L62.544270833333336,140.79831512386983L62.991015624999996,138.58578457740637L63.43776041666666,142.9089677494306L63.88450520833334,145.05744522466108L64.33125,142.51839576317712L64.77799479166667,144.979492522203L65.22473958333333,143.39786878743996L65.671484375,147.4307052407127L66.11822916666667,148.78780019856416L66.56497395833333,147.9099122423392L67.01171875,148.21569520292374L67.45846354166666,149.76324061247018L67.90520833333333,148.64911375882534L68.351953125,149.42204547214965L68.79869791666667,152.3459859238221L69.24544270833334,152.55780227654256L69.6921875,152.18333728496845L70.13893229166666,153.7179866421681L70.58567708333332,152.46286141929718L71.032421875,153.81989771815446L71.47916666666667,155.5932649528751L71.92591145833333,145.28178144704836L72.37265625,155.2750737022322L72.81940104166667,156.76674769503566L73.26614583333333,157.6760188507346L73.712890625,157.93392650811717L74.15963541666667,158.33540460410026L74.60638020833333,158.75955631411992L75.05312500000001,158.27162187431867L75.49986979166667,153.2248200751268L75.94661458333333,137.0690746708558L76.39335937499999,154.0451010734989L76.84010416666668,160.06997943454638L77.28684895833334,160.80293344935546L77.73359375,160.99310558962708L78.18033854166667,160.83433195117576L78.62708333333333,160.9671786330067L79.07382812499999,160.52605120135615L79.52057291666667,160.2358830099782L79.96731770833334,139.65791286642735L80.4140625,152.78260522049206L80.86080729166667,160.3555250421453L81.30755208333333,161.74725622325562L81.754296875,162.0919760040079L82.20104166666665,162.19605682518048L82.64778645833334,162.1234572341379L83.09453125,162.3498519409018L83.54127604166666,162.48451258836744L83.98802083333334,162.48482788046107L84.434765625,146.27028241352394L84.88151041666666,147.23341591541583L85.32825520833335,160.94145156328494L85.775,162.23684650444642L86.22174479166667,162.54831572127745L86.66848958333333,162.7787150201889L87.115234375,162.93950043898076L87.56197916666666,162.73177842029298L88.00872395833333,162.91199989108225L88.45546875000001,163.13924650815673L88.90221354166667,163.14156577001827L89.34895833333333,159.81153236945661L89.795703125,135.2198830350087L90.24244791666666,161.7402627321963L90.68919270833332,162.80665981432853L91.13593750000001,163.0335080922008L91.58268229166667,163.2164220586419L92.02942708333333,163.3143659216495L92.47617187499999,163.38489889894396L92.92291666666667,163.4399769049711L93.36966145833333,163.46154707637973L93.81640625,163.51003192304276L94.26315104166667,162.29649345634076L94.70989583333333,135.01626491432006L95.156640625,160.85058846253042L95.60338541666667,161.7872109682514L96.05013020833333,162.81163754006133L96.496875,163.38060085242614L96.94361979166668,163.4917790930933L97.39036458333334,163.55718052419476L97.837109375,163.63011987514508L98.28385416666666,163.6515019153639L98.73059895833333,163.6885907381164L99.17734375,163.70731594830823L99.62408854166667,163.74996924613458L100.07083333333334,163.76752693512333L100.517578125,122.06456558520978L100.96432291666666,155.0274881150287L101.41106770833333,162.6216810672329L101.8578125,163.2631154149914L102.30455729166667,163.43173101250656L102.75130208333334,163.54730700404167L103.198046875,163.6283736542727L103.64479166666666,163.6629108107792L104.09153645833332,163.7292295856616L104.53828125,163.77631355034043L104.98502604166667,163.80699108849063L105.43177083333333,163.80143629693282L105.878515625,163.84779272271464L106.32526041666667,163.88731625237358L106.77200520833333,163.9136984139466L107.21875,163.92142342888894L107.66549479166667,163.9400421602544L108.11223958333333,163.93552282746307L108.55898437500001,125.88294985661139L109.00572916666667,153.764191439232L109.45247395833333,162.36017656147195L109.89921874999999,163.50912310713187L110.34596354166668,163.6436487831211L110.79270833333334,163.73211312154308L111.239453125,163.78304957145323L111.68619791666667,163.83603486207386L112.13294270833333,163.8799672208619L112.57968749999999,163.9114639525875L113.02643229166667,163.9394105399708L113.47317708333334,163.97259626816958L113.919921875,163.99936393728981L114.36666666666667,164.0139044339661L114.81341145833333,164.02863798328997L115.26015625,164.04086079217421L115.70690104166665,164.05059147050355L116.15364583333334,164.07233628392436L116.600390625,164.07310819564066L117.04713541666666,164.10371420329187L117.49388020833334,164.10590500912915L117.940625,164.10179907878717L118.38736979166666,162.69910392595025L118.83411458333335,120.23513437922185L119.280859375,161.38368745864585L119.72760416666667,163.52526174260018L120.17434895833333,163.81639689083497L120.62109375,163.89890343606328L121.06783854166666,163.94349881682473L121.51458333333333,163.97763484463883L121.96132812500001,164.006676067831L122.40807291666667,164.03307811448423L122.85481770833333,164.05380733429382L123.3015625,164.07360928770728L123.74830729166666,164.09066094324675L124.19505208333332,164.10226263228554L124.64179687500001,164.1138263643325L125.08854166666667,164.12715470796235L125.53528645833333,164.14268427816793L125.98203124999999,164.15271372086136L126.42877604166667,164.16304061287352L126.87552083333333,164.17005607116823L127.322265625,164.1789305354021L127.76901041666667,164.18361539455006L128.21575520833332,164.1864413673085L128.6625,154.58339425978753L129.10924479166667,130.17362574430612L129.55598958333334,162.67326400142449L130.002734375,163.65125062214568L130.44947916666666,163.9738662035133L130.89622395833334,164.02202960127929L131.34296875,164.05008234869007L131.78971354166666,164.0753198429548L132.23645833333333,164.09398199074292L132.683203125,164.1134223863751L133.12994791666665,164.12737406151763L133.57669270833333,164.14034768161721L134.0234375,164.1519319363422L134.47018229166667,164.16310749090133L134.91692708333332,164.17348086777537L135.363671875,164.18429310119694L135.81041666666667,164.18925530540918L136.25716145833331,164.19808821620134L136.70390625,164.2060611271613L137.1506510416667,164.212011209407L137.59739583333334,164.2160228649423L138.044140625,164.2220186649401L138.49088541666669,164.22449607097167L138.93763020833333,164.23339250244092L139.384375,164.2339082293687L139.83111979166665,119.53547540077795L140.27786458333333,156.1143812554387L140.724609375,162.90491267315184L141.17135416666665,163.96832181276898L141.61809895833332,164.03908617827648L142.06484375,164.07368502236653L142.51158854166667,164.0988669659262L142.95833333333334,164.11880656075664L143.40507812500002,164.13699718507436L143.85182291666666,164.14968672548332L144.29856770833334,164.16229114659095L144.7453125,164.1745691276066L145.19205729166666,164.18303005987903L145.63880208333333,164.19129852728935L146.085546875,164.20010740861582L146.53229166666665,164.2070814728683L146.97903645833333,164.21343641973084L147.42578125,164.22075806442612L147.87252604166665,164.2253297748774L148.31927083333335,164.23133140789847L148.76601562500002,164.2357488545598L149.21276041666667,164.23978926675045L149.65950520833334,164.2432960893135L150.10625000000002,164.2491199272022L150.55299479166666,164.24996847518085L150.99973958333334,164.25459403275565L151.44648437499998,164.2598420849961L151.89322916666666,164.2614233125037L152.33997395833333,164.2622881540939L152.78671874999998,135.7044802881204L153.23346354166665,133.85348042501852L153.68020833333335,160.203477103693L154.126953125,163.7923164970349L154.57369791666667,164.0671764443306L155.02044270833335,164.10587765220015L155.4671875,164.1272079872254L155.91393229166667,164.14558502918896L156.36067708333334,164.15896446033955L156.807421875,164.17171011931407L157.25416666666666,164.1811328678114L157.70091145833334,164.19174169758423L158.14765624999998,164.20075121299416L158.59440104166666,164.20900255492708L159.04114583333333,164.2162661483386L159.487890625,164.22302055019938L159.93463541666668,164.22914882109484L160.38138020833335,164.2341506111619L160.828125,164.240003121025L161.27486979166667,164.2442218015651L161.72161458333335,164.2490670663627L162.168359375,164.2523450859724L162.61510416666667,164.2572817663492L163.06184895833331,164.26082983849875L163.50859375,164.26345899777908L163.95533854166666,164.26637096404514L164.4020833333333,164.26999472353222L164.848828125,164.2727493052662L165.29557291666669,164.27494177981637L165.74231770833333,164.27680107466696L166.1890625,164.27440352775514L166.63580729166668,164.27338588685737L167.08255208333333,164.28199633331454L167.529296875,164.28433516394804L167.97604166666667,164.28262041948395L168.42278645833332,111.6469271526887L168.86953125,158.9842030466176L169.31627604166667,163.75059939197337L169.76302083333331,164.10213549130668L170.209765625,164.14283658433348L170.6565104166667,164.1637510561805L171.10325520833334,164.17808520031843L171.55,164.191733359001L171.99674479166669,164.20355038672167L172.44348958333333,164.21319509894013L172.890234375,164.21970525104553L173.33697916666665,164.22706246672226L173.78372395833333,164.23439745115823L174.23046875,164.2404599249533L174.67721354166665,164.24570002714665L175.12395833333332,164.25062463301583L175.570703125,164.25481923925915L176.01744791666667,164.25918160345128L176.46419270833334,164.26288196184143L176.91093750000002,164.26603127387463L177.35768229166666,164.2692025431808L177.80442708333334,164.2720819521111L178.251171875,164.2751591931816L178.69791666666666,164.2773480239602L179.14466145833333,164.27953056842335L179.59140625,164.28112209961043L180.03815104166665,164.28389443694772L180.48489583333333,164.28475184404837L180.931640625,164.28715738957433L181.37838541666665,164.28832336908593L181.82513020833335,164.2899203534773L182.27187500000002,164.29127951888447L182.71861979166667,164.2924400065872L183.16536458333334,164.29329938002942L183.61210937500002,164.29466440710195L184.05885416666666,164.29453530974402L184.50559895833334,164.29632556222126L184.95234374999998,164.2963807717119L185.39908854166666,164.29697323452666L185.84583333333333,113.32828775506755L186.29257812499998,159.93724305712834L186.73932291666665,163.97286194718728L187.18606770833335,164.16556620734852L187.6328125,164.1892502544394L188.07955729166667,164.20752339785506L188.52630208333335,164.21937519457873L188.973046875,164.22789262897166L189.41979166666667,164.23571880278402L189.86653645833334,164.2423927278522L190.31328125,164.24831200117478L190.76002604166666,164.25275982339204L191.20677083333334,164.25780035748568L191.65351562499998,164.2619956860077L192.10026041666666,164.26598174547968L192.54700520833333,164.2692355861867L192.99375,164.27217999023895L193.44049479166668,164.27479563543545L193.88723958333335,164.2774518901301L194.333984375,164.27991036249688L194.78072916666667,164.28219469595598L195.22747395833335,164.28403319665142L195.67421875,164.28567026128496L196.12096354166667,164.2873563848323L196.56770833333331,164.28910598920686L197.014453125,164.29032491797486L197.46119791666666,164.2917927726303L197.9079427083333,164.29308482215578L198.3546875,164.29404686129084L198.80143229166669,164.29496390619786L199.24817708333333,164.29605657691047L199.694921875,164.29663843219058L200.14166666666668,164.29759478587135L200.58841145833333,164.29842679740335L201.03515625,164.2991468196205L201.48190104166667,164.29947357975666L201.92864583333332,164.30039843523627L202.375390625,164.3010233900081L202.82213541666667,164.30138533819348L203.26888020833331,164.30161414675072L203.715625,164.30126312676686L204.1623697916667,111.31675352729283L204.60911458333334,161.5744783875461L205.055859375,163.9060563664131L205.50260416666669,164.20817500284355L205.94934895833333,164.22524032190378L206.39609375,164.23662275203074L206.84283854166665,164.2453443073699L207.28958333333333,164.25104662809127L207.736328125,164.25676044051608L208.18307291666665,164.26060230077843L208.62981770833332,164.2653684636036L209.0765625,164.26865505093323L209.52330729166667,164.27194355354675L209.97005208333334,164.27453588657505L210.41679687500002,164.2769570669446L210.86354166666666,164.27926702386378L211.31028645833334,164.28155459512402L211.75703125,164.28349888474511L212.20377604166666,164.28523673216563L212.65052083333333,164.28685873479733L213.097265625,164.2883566449645L213.54401041666665,164.2898268868756L213.99075520833333,164.29121981258615L214.4375,164.29235515378184L214.88424479166665,164.29342598926172L215.33098958333335,164.29444428145564L215.77773437500002,164.2955805254997L216.22447916666667,164.29651529985858L216.67122395833334,164.29737090188513L217.11796875000002,164.29802232381329L217.56471354166666,164.29865573547264L218.01145833333334,164.2995656578398L218.45820312499998,164.3000654977491L218.90494791666666,164.3007974406783L219.35169270833333,164.30122628619378L219.79843749999998,164.30156880321374L220.24518229166665,164.30217590338026L220.69192708333335,164.30259057417592L221.138671875,164.30284289321668L221.58541666666667,164.30328532130792L222.03216145833335,164.3035543779126L222.47890625,164.30366369790949L222.92565104166667,164.30397427028527L223.37239583333334,164.30430956514073L223.819140625,125.10972739870732L224.26588541666666,140.86884618837098L224.71263020833334,161.85087382965364L225.15937499999998,164.07520467685893L225.60611979166666,164.21737393460128L226.05286458333333,164.2396777220106L226.499609375,164.25071214330876L226.94635416666668,164.25722323686708L227.39309895833335,164.2624778742969L227.83984375,164.2675998241455L228.28658854166667,164.27092886901048L228.73333333333335,164.27398418767663L229.180078125,164.276654950211L229.62682291666667,164.27922854135193L230.07356770833331,164.28138986576457L230.5203125,164.2830496771964L230.96705729166666,164.28506062318047L231.4138020833333,164.2870003238411L231.860546875,164.28830549517835L232.30729166666669,164.28989677356788L232.75403645833333,164.29123127938342L233.20078125,164.29249619613535L233.64752604166668,164.29351834131265L234.09427083333333,164.2946878985945L234.541015625,164.29576250237676L234.98776041666667,164.29657541461796L235.43450520833332,164.29742805281114L235.88125,164.2983356925285L236.32799479166667,164.29906147678636L236.77473958333331,164.29972817739997L237.221484375,164.30033631926673L237.6682291666667,164.3009398647012L238.11497395833334,164.3013999786585L238.56171875,164.30193296182102L239.00846354166669,164.30236506693052L239.45520833333333,164.30280898783488L239.901953125,164.30319281639544L240.34869791666665,164.30356345714287L240.79544270833333,164.30382141369353L241.2421875,164.30417762038576L241.68893229166665,164.3044133481863L242.13567708333332,164.30466854762477L242.582421875,164.30488476642816L243.02916666666667,164.30512723585994L243.47591145833334,164.30531843844662L243.92265625000002,164.3055434239079L244.36940104166666,164.30566877335534L244.81614583333334,164.30585124819999L245.262890625,164.3060082166435" style="fill: none;" fill="none"></path></g></g></g></g></g></g><g transform="translate(61, 178)" clip-path="url(#clip_1)"><clipPath id="clip_1"><rect width="268" height="22"></rect></clipPath><g><g><line x1="0" y1="0" x2="0" y2="5" style="visibility: inherit;" fill="rgb(0, 0, 0)" stroke="rgb(204, 204, 204)" stroke-width="1px"></line><line x1="22.337239583333332" y1="0" x2="22.337239583333332" y2="5" style="visibility: inherit;" fill="rgb(0, 0, 0)" stroke="rgb(204, 204, 204)" stroke-width="1px"></line><line x1="44.674479166666664" y1="0" x2="44.674479166666664" y2="5" style="visibility: inherit;" fill="rgb(0, 0, 0)" stroke="rgb(204, 204, 204)" stroke-width="1px"></line><line x1="67.01171875" y1="0" x2="67.01171875" y2="5" style="visibility: inherit;" fill="rgb(0, 0, 0)" stroke="rgb(204, 204, 204)" stroke-width="1px"></line><line x1="89.34895833333333" y1="0" x2="89.34895833333333" y2="5" style="visibility: inherit;" fill="rgb(0, 0, 0)" stroke="rgb(204, 204, 204)" stroke-width="1px"></line><line x1="111.68619791666667" y1="0" x2="111.68619791666667" y2="5" style="visibility: inherit;" fill="rgb(0, 0, 0)" stroke="rgb(204, 204, 204)" stroke-width="1px"></line><line x1="134.0234375" y1="0" x2="134.0234375" y2="5" style="visibility: inherit;" fill="rgb(0, 0, 0)" stroke="rgb(204, 204, 204)" stroke-width="1px"></line><line x1="156.36067708333334" y1="0" x2="156.36067708333334" y2="5" style="visibility: inherit;" fill="rgb(0, 0, 0)" stroke="rgb(204, 204, 204)" stroke-width="1px"></line><line x1="178.69791666666666" y1="0" x2="178.69791666666666" y2="5" style="visibility: inherit;" fill="rgb(0, 0, 0)" stroke="rgb(204, 204, 204)" stroke-width="1px"></line><line x1="201.03515625" y1="0" x2="201.03515625" y2="5" style="visibility: inherit;" fill="rgb(0, 0, 0)" stroke="rgb(204, 204, 204)" stroke-width="1px"></line><line x1="223.37239583333334" y1="0" x2="223.37239583333334" y2="5" style="visibility: inherit;" fill="rgb(0, 0, 0)" stroke="rgb(204, 204, 204)" stroke-width="1px"></line><line x1="245.70963541666666" y1="0" x2="245.70963541666666" y2="5" style="visibility: inherit;" fill="rgb(0, 0, 0)" stroke="rgb(204, 204, 204)" stroke-width="1px"></line><line x1="268.046875" y1="0" x2="268.046875" y2="5" style="visibility: inherit;" fill="rgb(0, 0, 0)" stroke="rgb(204, 204, 204)" stroke-width="1px"></line></g><g transform="translate(0, 8)"><text x="0" y="0" dx="0em" dy="0.95em" style="text-anchor: middle; visibility: hidden; font-family: Roboto, sans-serif; font-size: 12px; font-weight: 200;" fill="rgb(50, 49, 63)" stroke="none" stroke-width="1px">-50</text><text x="22.337239583333332" y="0" dx="0em" dy="0.95em" style="text-anchor: middle; visibility: inherit; font-family: Roboto, sans-serif; font-size: 12px; font-weight: 200;" fill="rgb(50, 49, 63)" stroke="none" stroke-width="1px">0</text><text x="44.674479166666664" y="0" dx="0em" dy="0.95em" style="text-anchor: middle; visibility: hidden; font-family: Roboto, sans-serif; font-size: 12px; font-weight: 200;" fill="rgb(50, 49, 63)" stroke="none" stroke-width="1px">50</text><text x="67.01171875" y="0" dx="0em" dy="0.95em" style="text-anchor: middle; visibility: inherit; font-family: Roboto, sans-serif; font-size: 12px; font-weight: 200;" fill="rgb(50, 49, 63)" stroke="none" stroke-width="1px">100</text><text x="89.34895833333333" y="0" dx="0em" dy="0.95em" style="text-anchor: middle; visibility: hidden; font-family: Roboto, sans-serif; font-size: 12px; font-weight: 200;" fill="rgb(50, 49, 63)" stroke="none" stroke-width="1px">150</text><text x="111.68619791666667" y="0" dx="0em" dy="0.95em" style="text-anchor: middle; visibility: inherit; font-family: Roboto, sans-serif; font-size: 12px; font-weight: 200;" fill="rgb(50, 49, 63)" stroke="none" stroke-width="1px">200</text><text x="134.0234375" y="0" dx="0em" dy="0.95em" style="text-anchor: middle; visibility: hidden; font-family: Roboto, sans-serif; font-size: 12px; font-weight: 200;" fill="rgb(50, 49, 63)" stroke="none" stroke-width="1px">250</text><text x="156.36067708333334" y="0" dx="0em" dy="0.95em" style="text-anchor: middle; visibility: inherit; font-family: Roboto, sans-serif; font-size: 12px; font-weight: 200;" fill="rgb(50, 49, 63)" stroke="none" stroke-width="1px">300</text><text x="178.69791666666666" y="0" dx="0em" dy="0.95em" style="text-anchor: middle; visibility: hidden; font-family: Roboto, sans-serif; font-size: 12px; font-weight: 200;" fill="rgb(50, 49, 63)" stroke="none" stroke-width="1px">350</text><text x="201.03515625" y="0" dx="0em" dy="0.95em" style="text-anchor: middle; visibility: inherit; font-family: Roboto, sans-serif; font-size: 12px; font-weight: 200;" fill="rgb(50, 49, 63)" stroke="none" stroke-width="1px">400</text><text x="223.37239583333334" y="0" dx="0em" dy="0.95em" style="text-anchor: middle; visibility: hidden; font-family: Roboto, sans-serif; font-size: 12px; font-weight: 200;" fill="rgb(50, 49, 63)" stroke="none" stroke-width="1px">450</text><text x="245.70963541666666" y="0" dx="0em" dy="0.95em" style="text-anchor: middle; visibility: inherit; font-family: Roboto, sans-serif; font-size: 12px; font-weight: 200;" fill="rgb(50, 49, 63)" stroke="none" stroke-width="1px">500</text><text x="268.046875" y="0" dx="0em" dy="0.95em" style="text-anchor: middle; visibility: hidden; font-family: Roboto, sans-serif; font-size: 12px; font-weight: 200;" fill="rgb(50, 49, 63)" stroke="none" stroke-width="1px">550</text></g><line x1="0" y1="0" x2="268.046875" y2="0" fill="rgb(0, 0, 0)" stroke="rgb(204, 204, 204)" stroke-width="1px"></line></g></g></g></g></svg>