<svg viewBox="0 0 330 200" xmlns="http://www.w3.org/2000/svg"><g><g><g><g><g><line x1="50" y1="178" x2="45" y2="178" style="visibility: inherit;" fill="rgb(0, 0, 0)" stroke="rgb(204, 204, 204)" stroke-width="1px"></line><line x1="50" y1="161.81818181818184" x2="45" y2="161.81818181818184" style="visibility: inherit;" fill="rgb(0, 0, 0)" stroke="rgb(204, 204, 204)" stroke-width="1px"></line><line x1="50" y1="145.63636363636365" x2="45" y2="145.63636363636365" style="visibility: inherit;" fill="rgb(0, 0, 0)" stroke="rgb(204, 204, 204)" stroke-width="1px"></line><line x1="50" y1="129.45454545454547" x2="45" y2="129.45454545454547" style="visibility: inherit;" fill="rgb(0, 0, 0)" stroke="rgb(204, 204, 204)" stroke-width="1px"></line><line x1="50" y1="113.27272727272725" x2="45" y2="113.27272727272725" style="visibility: inherit;" fill="rgb(0, 0, 0)" stroke="rgb(204, 204, 204)" stroke-width="1px"></line><line x1="50" y1="97.09090909090911" x2="45" y2="97.09090909090911" style="visibility: inherit;" fill="rgb(0, 0, 0)" stroke="rgb(204, 204, 204)" stroke-width="1px"></line><line x1="50" y1="80.90909090909089" x2="45" y2="80.90909090909089" style="visibility: inherit;" fill="rgb(0, 0, 0)" stroke="rgb(204, 204, 204)" stroke-width="1px"></line><line x1="50" y1="64.7272727272727" x2="45" y2="64.7272727272727" style="visibility: inherit;" fill="rgb(0, 0, 0)" stroke="rgb(204, 204, 204)" stroke-width="1px"></line><line x1="50" y1="48.54545454545454" x2="45" y2="48.54545454545454" style="visibility: inherit;" fill="rgb(0, 0, 0)" stroke="rgb(204, 204, 204)" stroke-width="1px"></line><line x1="50" y1="32.36363636363635" x2="45" y2="32.36363636363635" style="visibility: inherit;" fill="rgb(0, 0, 0)" stroke="rgb(204, 204, 204)" stroke-width="1px"></line><line x1="50" y1="16.181818181818148" x2="45" y2="16.181818181818148" style="visibility: inherit;" fill="rgb(0, 0, 0)" stroke="rgb(204, 204, 204)" stroke-width="1px"></line><line x1="50" y1="0" x2="45" y2="0" style="visibility: inherit;" fill="rgb(0, 0, 0)" stroke="rgb(204, 204, 204)" stroke-width="1px"></line></g><g transform="translate(40, 0)"><text x="0" y="178" dx="0em" dy="0.3em" style="text-anchor: end; visibility: hidden; font-family: Roboto, sans-serif; font-size: 12px; font-weight: 200;" fill="rgb(50, 49, 63)" stroke="none" stroke-width="1px">0.2</text><text x="0" y="161.81818181818184" dx="0em" dy="0.3em" style="text-anchor: end; visibility: inherit; font-family: Roboto, sans-serif; font-size: 12px; font-weight: 200;" fill="rgb(50, 49, 63)" stroke="none" stroke-width="1px">0.22</text><text x="0" y="145.63636363636365" dx="0em" dy="0.3em" style="text-anchor: end; visibility: hidden; font-family: Roboto, sans-serif; font-size: 12px; font-weight: 200;" fill="rgb(50, 49, 63)" stroke="none" stroke-width="1px">0.24</text><text x="0" y="129.45454545454547" dx="0em" dy="0.3em" style="text-anchor: end; visibility: inherit; font-family: Roboto, sans-serif; font-size: 12px; font-weight: 200;" fill="rgb(50, 49, 63)" stroke="none" stroke-width="1px">0.26</text><text x="0" y="113.27272727272725" dx="0em" dy="0.3em" style="text-anchor: end; visibility: hidden; font-family: Roboto, sans-serif; font-size: 12px; font-weight: 200;" fill="rgb(50, 49, 63)" stroke="none" stroke-width="1px">0.28</text><text x="0" y="97.09090909090911" dx="0em" dy="0.3em" style="text-anchor: end; visibility: inherit; font-family: Roboto, sans-serif; font-size: 12px; font-weight: 200;" fill="rgb(50, 49, 63)" stroke="none" stroke-width="1px">0.3</text><text x="0" y="80.90909090909089" dx="0em" dy="0.3em" style="text-anchor: end; visibility: hidden; font-family: Roboto, sans-serif; font-size: 12px; font-weight: 200;" fill="rgb(50, 49, 63)" stroke="none" stroke-width="1px">0.32</text><text x="0" y="64.7272727272727" dx="0em" dy="0.3em" style="text-anchor: end; visibility: inherit; font-family: Roboto, sans-serif; font-size: 12px; font-weight: 200;" fill="rgb(50, 49, 63)" stroke="none" stroke-width="1px">0.34</text><text x="0" y="48.54545454545454" dx="0em" dy="0.3em" style="text-anchor: end; visibility: hidden; font-family: Roboto, sans-serif; font-size: 12px; font-weight: 200;" fill="rgb(50, 49, 63)" stroke="none" stroke-width="1px">0.36</text><text x="0" y="32.36363636363635" dx="0em" dy="0.3em" style="text-anchor: end; visibility: inherit; font-family: Roboto, sans-serif; font-size: 12px; font-weight: 200;" fill="rgb(50, 49, 63)" stroke="none" stroke-width="1px">0.38</text><text x="0" y="16.181818181818148" dx="0em" dy="0.3em" style="text-anchor: end; visibility: hidden; font-family: Roboto, sans-serif; font-size: 12px; font-weight: 200;" fill="rgb(50, 49, 63)" stroke="none" stroke-width="1px">0.4</text><text x="0" y="0" dx="0em" dy="0.3em" style="text-anchor: end; visibility: hidden; font-family: Roboto, sans-serif; font-size: 12px; font-weight: 200;" fill="rgb(50, 49, 63)" stroke="none" stroke-width="1px">0.42</text></g><line x1="50" y1="0" x2="50" y2="178" fill="rgb(0, 0, 0)" stroke="rgb(204, 204, 204)" stroke-width="1px"></line></g></g><g transform="translate(50, 0)" clip-path="url(#clip_0)"><clipPath id="clip_0"><rect width="280" height="178"></rect></clipPath><g><g><g><line x1="0" y1="0" x2="0" y2="178" fill="rgb(0, 0, 0)" stroke="rgb(60, 60, 60)" stroke-width="1px" opacity="0.25"></line><line x1="23.333333333333332" y1="0" x2="23.333333333333332" y2="178" fill="rgb(0, 0, 0)" stroke="rgb(60, 60, 60)" stroke-width="1px" opacity="0.25"></line><line x1="46.666666666666664" y1="0" x2="46.666666666666664" y2="178" fill="rgb(0, 0, 0)" stroke="rgb(60, 60, 60)" stroke-width="1px" opacity="0.25"></line><line x1="70" y1="0" x2="70" y2="178" fill="rgb(0, 0, 0)" stroke="rgb(60, 60, 60)" stroke-width="1px" opacity="0.25"></line><line x1="93.33333333333333" y1="0" x2="93.33333333333333" y2="178" fill="rgb(0, 0, 0)" stroke="rgb(60, 60, 60)" stroke-width="1px" opacity="0.25"></line><line x1="116.66666666666667" y1="0" x2="116.66666666666667" y2="178" fill="rgb(0, 0, 0)" stroke="rgb(60, 60, 60)" stroke-width="1px" opacity="0.25"></line><line x1="140" y1="0" x2="140" y2="178" fill="rgb(0, 0, 0)" stroke="rgb(60, 60, 60)" stroke-width="1px" opacity="0.25"></line><line x1="163.33333333333334" y1="0" x2="163.33333333333334" y2="178" fill="rgb(0, 0, 0)" stroke="rgb(60, 60, 60)" stroke-width="1px" opacity="0.25"></line><line x1="186.66666666666666" y1="0" x2="186.66666666666666" y2="178" fill="rgb(0, 0, 0)" stroke="rgb(60, 60, 60)" stroke-width="1px" opacity="0.25"></line><line x1="210" y1="0" x2="210" y2="178" fill="rgb(0, 0, 0)" stroke="rgb(60, 60, 60)" stroke-width="1px" opacity="0.25"></line><line x1="233.33333333333334" y1="0" x2="233.33333333333334" y2="178" fill="rgb(0, 0, 0)" stroke="rgb(60, 60, 60)" stroke-width="1px" opacity="0.25"></line><line x1="256.66666666666663" y1="0" x2="256.66666666666663" y2="178" fill="rgb(0, 0, 0)" stroke="rgb(60, 60, 60)" stroke-width="1px" opacity="0.25"></line><line x1="280" y1="0" x2="280" y2="178" fill="rgb(0, 0, 0)" stroke="rgb(60, 60, 60)" stroke-width="1px" opacity="0.25"></line></g><g><line x1="0" y1="178" x2="280" y2="178" fill="rgb(0, 0, 0)" stroke="rgb(60, 60, 60)" stroke-width="1px" opacity="0.25"></line><line x1="0" y1="161.81818181818184" x2="280" y2="161.81818181818184" fill="rgb(0, 0, 0)" stroke="rgb(60, 60, 60)" stroke-width="1px" opacity="0.25"></line><line x1="0" y1="145.63636363636365" x2="280" y2="145.63636363636365" fill="rgb(0, 0, 0)" stroke="rgb(60, 60, 60)" stroke-width="1px" opacity="0.25"></line><line x1="0" y1="129.45454545454547" x2="280" y2="129.45454545454547" fill="rgb(0, 0, 0)" stroke="rgb(60, 60, 60)" stroke-width="1px" opacity="0.25"></line><line x1="0" y1="113.27272727272725" x2="280" y2="113.27272727272725" fill="rgb(0, 0, 0)" stroke="rgb(60, 60, 60)" stroke-width="1px" opacity="0.25"></line><line x1="0" y1="97.09090909090911" x2="280" y2="97.09090909090911" fill="rgb(0, 0, 0)" stroke="rgb(60, 60, 60)" stroke-width="1px" opacity="0.25"></line><line x1="0" y1="80.90909090909089" x2="280" y2="80.90909090909089" fill="rgb(0, 0, 0)" stroke="rgb(60, 60, 60)" stroke-width="1px" opacity="0.25"></line><line x1="0" y1="64.7272727272727" x2="280" y2="64.7272727272727" fill="rgb(0, 0, 0)" stroke="rgb(60, 60, 60)" stroke-width="1px" opacity="0.25"></line><line x1="0" y1="48.54545454545454" x2="280" y2="48.54545454545454" fill="rgb(0, 0, 0)" stroke="rgb(60, 60, 60)" stroke-width="1px" opacity="0.25"></line><line x1="0" y1="32.36363636363635" x2="280" y2="32.36363636363635" fill="rgb(0, 0, 0)" stroke="rgb(60, 60, 60)" stroke-width="1px" opacity="0.25"></line><line x1="0" y1="16.181818181818148" x2="280" y2="16.181818181818148" fill="rgb(0, 0, 0)" stroke="rgb(60, 60, 60)" stroke-width="1px" opacity="0.25"></line><line x1="0" y1="0" x2="280" y2="0" fill="rgb(0, 0, 0)" stroke="rgb(60, 60, 60)" stroke-width="1px" opacity="0.25"></line></g></g></g><g><g><line x1="0" y1="339.8181818181818" x2="280" y2="339.8181818181818" fill="rgb(0, 0, 0)" stroke="rgb(153, 153, 153)" stroke-width="1.5px"></line></g></g><g><g><line x1="23.333333333333332" y1="0" x2="23.333333333333332" y2="178" fill="rgb(0, 0, 0)" stroke="rgb(153, 153, 153)" stroke-width="1.5px"></line></g></g><g><g><g><g><g><path stroke="rgb(255, 112, 67)" stroke-width="2px" d="M33.6,-13.884491851668248L34.06666666666667,0.269751853367173L34.53333333333333,13.054083220530055L35,24.1973691569171L35.46666666666667,33.99339914738443L35.93333333333333,42.62033322376427L36.4,50.25755808209243L36.86666666666666,56.85663701424016L37.333333333333336,62.97436151949022L37.800000000000004,68.28273640231548L38.266666666666666,73.2554060968161L38.733333333333334,77.47163423500251L39.2,81.25005661709278L39.666666666666664,84.53250916783216L40.13333333333333,87.72525136053069L40.599999999999994,90.63814371289752L41.06666666666667,93.49248248220428L41.53333333333334,95.81866939199458L42,98.17266231674591L42.46666666666667,100.06279991895701L42.93333333333333,101.82781769366625L43.4,103.53565526084103L43.86666666666667,105.00064766684278L44.33333333333333,106.63150877912365L44.800000000000004,107.70298506716641L45.266666666666666,108.99539219084153L45.733333333333334,110.05501049550925L46.2,111.03159162550224L46.666666666666664,112.14730790346842L47.13333333333333,113.12885359958905L47.6,113.99644768693221L48.06666666666666,114.56058077001623L48.53333333333333,115.32853831151701L49,116.02030370143096L49.46666666666667,116.6784487749109L49.93333333333334,117.11717286778944L50.4,117.65875570438565L50.86666666666667,118.19573397478459L51.33333333333333,118.62932201810914L51.8,118.98924391620301L52.266666666666666,119.46101444671496L52.733333333333334,119.76737936345523L53.2,120.20649486893183L53.66666666666667,120.5745268665939L54.13333333333333,121.16006645308349L54.6,121.40116582795193L55.06666666666666,121.79822847373178L55.53333333333333,122.07126563700535L56,122.45768754971974L56.46666666666667,122.44834530040482L56.93333333333334,122.71794402411498L57.4,123.1272644313466L57.86666666666667,123.2901787478014L58.333333333333336,123.7162374155149L58.8,123.80023779034983L59.266666666666666,124.1613264675379L59.733333333333334,124.46507506451738L60.199999999999996,124.59155616635576L60.66666666666667,125.01215160121669L61.13333333333333,125.11837572104912L61.6,125.35900160655052L62.06666666666667,125.5549399239537L62.53333333333333,125.67839607981053L63,125.7001739584637L63.46666666666666,126.05194819773082L63.93333333333333,126.09951839276515L64.4,126.44997587621862L64.86666666666666,126.62969464119304L65.33333333333333,126.75238902277097L65.8,127.06409532155223L66.26666666666667,127.31869277823075L66.73333333333333,127.36902977344617L67.2,127.54967647817432L67.66666666666667,127.56453581847589L68.13333333333334,127.57806178774413L68.6,127.64107736528234L69.06666666666666,127.8689437077173L69.53333333333333,128.15038846743658L70,128.3597455170686L70.46666666666667,128.27767148026706L70.93333333333334,128.4649735095814L71.4,128.54291202062836L71.86666666666666,128.7563812991593L72.33333333333334,129.08449291135375L72.8,129.14375301946322L73.26666666666667,129.21836215595783L73.73333333333332,129.1986500424386L74.2,129.3060074634154L74.66666666666667,129.41755759420607L75.13333333333333,129.36737668336994L75.60000000000001,129.60845984222522L76.06666666666666,129.69944431631257L76.53333333333333,129.5322841561563L77,129.906180505991L77.46666666666667,130.18142523415742L77.93333333333334,130.31396193641228L78.4,130.45172116361738L78.86666666666667,130.46449783998702L79.33333333333333,130.4113610393013L79.8,130.42957568747488L80.26666666666667,130.59605124994275L80.73333333333333,130.6642716740726L81.19999999999999,130.90481923367085L81.66666666666667,130.7891154624118L82.13333333333334,130.79958368923462L82.6,131.04688641019743L83.06666666666668,131.1665834700351L83.53333333333333,131.26208046386532L84,131.3639101572518L84.46666666666667,131.53356374537145L84.93333333333334,131.6417216743053L85.39999999999999,131.70872871190434L85.86666666666666,132.06083667127186L86.33333333333334,132.10185551769456L86.8,131.9197720058377L87.26666666666667,132.0740071569994L87.73333333333333,132.03412081537607L88.2,131.89569184732306L88.66666666666666,132.10519010211692L89.13333333333334,132.04364843273285L89.60000000000001,132.12332322930496L90.06666666666666,132.24324463393864L90.53333333333333,132.56541105641685L91,132.79238200722577L91.46666666666667,132.87428186910958L91.93333333333332,133.0443522411876L92.4,133.0265056819332L92.86666666666666,133.22183669825432L93.33333333333333,133.1920244614755L93.80000000000001,133.18007851039943L94.26666666666667,133.15389077248972L94.73333333333333,133.19537366314955L95.2,133.0488793447486L95.66666666666667,133.33423906859264L96.13333333333333,133.12125138221086L96.6,133.49429102461826L97.06666666666666,133.42663942734444L97.53333333333333,133.3182143734588L98,133.52089809522644L98.46666666666667,133.89285693959852L98.93333333333334,134.08300737162128L99.39999999999999,134.15939487534038L99.86666666666667,134.31871180355006L100.33333333333333,134.16746417111372L100.8,134.20817851244774L101.26666666666668,134.2836780024729L101.73333333333333,134.44640697460164L102.2,134.54463270990883L102.66666666666666,134.50473465517283L103.13333333333334,134.50104091923146L103.6,134.70822977476107L104.06666666666666,134.73312124012855L104.53333333333333,134.64636766931605L105,134.6882203688584L105.46666666666667,134.9151946055563L105.93333333333334,134.64634217795668L106.4,135.00557759119508L106.86666666666666,135.1967649231433L107.33333333333334,135.2014651378224L107.8,135.24735070620088L108.26666666666667,135.42536513528782L108.73333333333332,135.30075854265536L109.2,135.36571372652182L109.66666666666667,135.53378670440227L110.13333333333333,135.6917102831533L110.60000000000001,135.80807913366894L111.06666666666666,135.76488862864718L111.53333333333333,135.37808304849432L112,135.53080121823595L112.46666666666667,135.6183811716778L112.93333333333334,135.61602914776572L113.4,135.79477904108865L113.86666666666667,136.07782084754632L114.33333333333333,136.32587746117701L114.8,136.2356668931116L115.26666666666667,136.3701218455519L115.73333333333333,136.1746841028839L116.19999999999999,136.5419438216394L116.66666666666667,136.6763038053641L117.13333333333334,136.65555927948424L117.6,136.75361664932365L118.06666666666668,136.78368933756533L118.53333333333333,136.92009780480277L119,137.14253008496325L119.46666666666667,137.02402046238683L119.93333333333334,137.17548536824546L120.39999999999999,137.14995741586307L120.86666666666666,137.2571336080511L121.33333333333334,137.46648738898298L121.8,137.48723314203568L122.26666666666667,137.6308011130719L122.73333333333333,137.46110039124983L123.2,137.43562104532452L123.66666666666666,137.6291067798152L124.13333333333334,137.64543879352567L124.60000000000001,137.8869329601787L125.06666666666666,137.75632638829887L125.53333333333333,138.01775985526896L126,137.6691435582239L126.46666666666667,137.65189228315128L126.93333333333332,137.65657343021775L127.4,137.872495762364L127.86666666666666,137.83883452146787L128.33333333333331,137.9195642628588L128.8,138.06936744636567L129.26666666666668,138.08008225053496L129.73333333333332,138.2664214677103L130.20000000000002,138.22524864766473L130.66666666666666,137.85306038868873L131.13333333333333,137.83537164522136L131.6,138.0746585125935L132.06666666666666,138.5177548644073L132.53333333333333,138.46062670127046L133,138.4143995055992L133.46666666666667,138.2229855824808L133.93333333333334,138.48996805094748L134.4,138.44744132235581L134.86666666666667,138.4927734792364L135.33333333333334,138.5506297721725L135.79999999999998,138.68912981053305L136.26666666666668,139.05258439838954L136.73333333333335,138.96990799007673L137.2,138.9652146242296L137.66666666666666,139.11405357428347L138.13333333333333,139.02183587539605L138.6,139.09315044179425L139.06666666666666,139.12467850958407L139.53333333333333,139.30333292639585L140,139.12679039874925L140.46666666666667,139.06355898479538L140.93333333333334,138.99705130506598L141.4,138.87967230901907L141.86666666666667,139.13131459966772L142.33333333333331,139.1898177865257L142.8,139.41638488137838L143.26666666666668,139.46834994240527L143.73333333333332,139.4086816385243L144.20000000000002,139.38621502802258L144.66666666666669,139.61771616639894L145.13333333333333,139.6403980332744L145.6,139.6544701189315L146.06666666666666,139.72476749439497L146.53333333333333,139.78192960620686L147,139.72146843856487L147.46666666666664,139.90257816793977L147.93333333333334,139.90408195262987L148.4,139.87098036964602L148.86666666666665,140.10130888676562L149.33333333333334,140.13819370649898L149.8,140.07020546404289L150.26666666666665,140.15001986215626L150.73333333333332,139.99792185896703L151.20000000000002,139.95208672730206L151.66666666666666,139.9371966364865L152.13333333333333,139.69104097253478L152.60000000000002,139.90584476299196L153.06666666666666,139.99021483040843L153.53333333333333,140.20539218206133L154,140.1619378361963L154.46666666666667,140.09066821863698L154.93333333333334,140.2392269541106L155.4,140.1068573012249L155.86666666666667,140.16811433790627L156.33333333333334,140.18308988969085L156.8,140.50685802447043L157.26666666666665,140.70787048601005L157.73333333333335,140.5195159862756L158.2,140.53586357210716L158.66666666666666,140.72801784987942L159.13333333333333,140.66152410695372L159.6,140.54497813034254L160.06666666666666,140.64665643482326L160.53333333333333,140.7136048085029L161,140.63856775366116L161.46666666666667,140.7273280917684L161.93333333333334,140.5332256690474L162.39999999999998,140.52676675478938L162.86666666666667,140.52176775030847L163.33333333333334,140.45827900735796L163.79999999999998,140.61246595656377L164.26666666666668,140.91791815791916L164.73333333333335,141.14904854058045L165.2,140.72158744061372L165.66666666666666,140.84025753810636L166.13333333333335,141.10777144975063L166.6,140.98597691861747L167.06666666666666,141.0812219286439L167.53333333333336,141.2550217809962L168,141.09809268132963L168.46666666666667,141.1665518645684L168.93333333333334,141.02269193479495L169.4,141.01232643693137L169.86666666666667,141.17924660198466L170.33333333333331,141.24113170628024L170.79999999999998,141.28077532137905L171.26666666666668,141.03584857969943L171.73333333333332,141.28773734032248L172.2,141.44436831238622L172.66666666666669,141.44068528120644L173.13333333333333,141.49584943053625L173.6,141.54386409086126L174.06666666666666,141.43116457873234L174.53333333333333,141.56867718249566L175,141.65955670478675L175.46666666666667,141.68928682686527L175.93333333333334,141.6019593860334L176.4,141.67251402812593L176.86666666666667,141.44654864259812L177.33333333333331,141.75769739154836L177.8,141.66679057903858L178.26666666666668,141.6548971911482L178.73333333333332,141.7312830338821L179.20000000000002,141.78672589686457L179.66666666666669,141.6693397370774L180.13333333333333,141.71462531136265L180.6,141.71707140300202L181.06666666666666,141.71311368066006L181.53333333333333,141.7096973748084L182,141.86039728143996L182.46666666666664,141.74773450136783L182.93333333333334,141.93287743321693L183.4,141.91743374797863L183.86666666666665,141.93941288767337L184.33333333333334,141.9904574488287L184.8,141.95294626887025L185.26666666666665,142.23186870254668L185.73333333333332,142.15158865138267L186.20000000000002,142.19619216167285L186.66666666666666,142.05144000599435L187.13333333333333,142.2605490738945L187.60000000000002,142.39512432598397L188.06666666666666,142.29687060595458L188.53333333333333,142.35261326187847L189,142.273042217544L189.46666666666667,142.32218477358407L189.93333333333334,142.4846041080788L190.4,142.399242194413L190.86666666666667,142.44220959658557L191.33333333333334,142.5572025313521L191.8,142.19796964298587L192.26666666666665,142.30778375998403L192.73333333333335,142.1911577143929L193.2,142.34899970913628L193.66666666666666,142.46330860271868L194.13333333333333,142.4343480658331L194.6,142.401129641911L195.06666666666666,142.5262080727158L195.53333333333333,142.69872866586945L196,142.8900646186293L196.46666666666667,142.92283448512248L196.93333333333334,142.72512926528879L197.39999999999998,142.58918350640766L197.86666666666667,142.7927497705233L198.33333333333334,142.6853454312657L198.79999999999998,142.52803001301245L199.26666666666668,142.5463776916072L199.73333333333335,142.7807044746001L200.2,142.76685331397013L200.66666666666666,142.96790913422558L201.13333333333335,142.92434418443995L201.6,142.84034416821098L202.06666666666666,142.79425070243067L202.53333333333336,142.83573080904208L203,142.75727146315367L203.46666666666667,142.74113738532807L203.93333333333334,142.95390705409667L204.4,142.88833379397244L204.86666666666667,143.057006038397L205.33333333333331,142.9354313356694L205.79999999999998,143.1158009982823L206.26666666666668,143.14091566033747L206.73333333333332,143.14108757707396L207.2,142.9581216171991L207.66666666666669,142.99078110321935L208.13333333333333,143.16602484210534L208.6,142.8655746991343L209.06666666666666,143.03949735795354L209.53333333333333,143.12685143762494L210,142.9703410440956L210.46666666666667,142.89672813045448L210.93333333333334,142.91105318367596L211.4,142.99434963318504L211.86666666666667,142.7963322996989L212.33333333333331,143.0866773334354L212.8,142.9364226768196L213.26666666666668,142.98245408755858L213.73333333333332,143.01995435457096L214.20000000000002,142.87588337448906L214.66666666666669,143.12854374824028L215.13333333333333,143.11637073818048L215.6,142.87695241120468L216.06666666666666,143.1153685426805L216.53333333333333,143.1517914725273L217,143.3336046442239L217.46666666666664,143.49440965518806L217.93333333333334,143.2576539300355L218.4,143.30490999442446L218.86666666666665,143.45409763685313L219.33333333333334,143.45134022731452L219.8,143.44707677791743L220.26666666666665,143.60245747042381L220.73333333333332,143.5596945835241L221.20000000000002,143.661704419331L221.66666666666666,143.3485641079078L222.13333333333333,143.60181373447847L222.60000000000002,143.29454992846865L223.06666666666666,143.24937065785497L223.53333333333333,143.51338643149845L224,143.64656427420238L224.46666666666667,143.84054375783293L224.93333333333334,143.88183458071003L225.4,143.93644623844816L225.86666666666667,143.76050740685187L226.33333333333334,143.73724587628374L226.8,143.67098349796666L227.26666666666665,143.6632189182456L227.73333333333335,143.65462014083525L228.2,143.59147444153325L228.66666666666666,143.89460936168618L229.13333333333333,143.97403507708293L229.6,143.64290271784316L230.06666666666666,143.7928604605198L230.53333333333333,143.8649000143268L231,143.7180956860447L231.46666666666667,143.91668520440135L231.93333333333334,143.89296100072653L232.39999999999998,143.97797471439756L232.86666666666667,143.84271647697963L233.33333333333334,144.04894738838297L233.79999999999998,143.90357757476102L234.26666666666668,144.00505754380794L234.73333333333335,143.84372689253803L235.2,143.88615574034444L235.66666666666666,143.896494330881L236.13333333333335,144.08554958002665L236.6,144.00202465364387L237.06666666666666,144.1094723004642L237.53333333333336,143.9196329574367L238,143.99791791800146L238.46666666666667,144.215993238795L238.93333333333334,144.22354974564584L239.4,144.19384831319255L239.86666666666667,144.20292768014022L240.33333333333331,144.2829754441749L240.79999999999998,144.291820821911L241.26666666666668,144.3189838796989L241.73333333333332,144.37936471360106L242.2,144.11279446592602L242.66666666666669,144.05014741735965L243.13333333333333,143.85053089721117L243.6,143.988748527708L244.06666666666666,144.2277322481202L244.53333333333333,144.2914104254213L245,144.22534399088318L245.46666666666667,144.22160324910394L245.93333333333334,144.2562465472927L246.4,144.41957286186118L246.86666666666667,144.3908270137191L247.33333333333331,144.26779670337916L247.8,144.32600085465523L248.26666666666668,144.47457173835826L248.73333333333332,144.41648640691557L249.20000000000002,144.41446718034555L249.66666666666669,144.38340401271878L250.13333333333333,144.58315563408837L250.6,144.58464657517527L251.06666666666666,144.42039747659447L251.53333333333333,144.35796897404026L252,144.4470943649893L252.46666666666664,144.3918305702813L252.93333333333334,144.59746123414627L253.4,144.4958287389036L253.86666666666665,144.64998835986592L254.33333333333334,144.68047568653012L254.8,144.88143692016268L255.26666666666665,144.8310298798281L255.73333333333332,144.86545615334825L256.2,144.6640524291638" style="fill: none;" fill="none"></path></g></g></g></g><g opacity="0.2"><g><g><g><path stroke="rgb(255, 112, 67)" stroke-width="2px" d="M33.13333333333333,-3.5947961807250977L33.6,9.652142676440139L34.06666666666667,21.50094974040983L34.53333333333333,32.23048940571871L35,40.912250540473245L35.46666666666667,48.68741906772959L35.93333333333333,55.56072109395806L36.4,61.71338833462107L36.86666666666666,66.75525176525116L37.333333333333336,72.15094624866138L37.800000000000004,76.24529767036438L38.266666666666666,80.7144100449302L38.733333333333334,83.79597614028238L39.2,86.91769002784382L39.666666666666664,89.45618790929967L40.13333333333333,92.51436460018158L40.599999999999994,95.00748221440749L41.06666666666667,97.77399062026632L41.53333333333334,99.30794974890621L42,101.70365169915287L42.46666666666667,102.8980063199997L42.93333333333333,104.47534435445611L43.4,106.09741161086343L43.86666666666667,107.19813627546485L44.33333333333333,109.0778004472906L44.800000000000004,109.31019949913025L45.266666666666666,110.93400287628174L45.733333333333334,111.64443795247512L46.2,112.49646332047202L46.666666666666664,113.82088232040405L47.13333333333333,114.60117214376277L47.6,115.29783881794322L48.06666666666666,115.40678039464085L48.53333333333333,116.48047462376682L49,117.05795178630136L49.46666666666667,117.66566638513045L49.93333333333334,117.77525900710714L50.4,118.47112995927985L50.86666666666667,119.0012013803829L51.33333333333333,119.27970408309591L51.8,119.52912676334381L52.266666666666666,120.16867024248297L52.733333333333334,120.22692673856562L53.2,120.86516812714665L53.66666666666667,121.12657486308706L54.13333333333333,122.03837583281778L54.6,121.76281489025462L55.06666666666666,122.39382244240153L55.53333333333333,122.48082138191569L56,123.03732041879134L56.46666666666667,122.43433192643253L56.93333333333334,123.12234210968018L57.4,123.74124504219401L57.86666666666667,123.53455022248356L58.333333333333336,124.35532541708513L58.8,123.92623835260218L59.266666666666666,124.70295948332007L59.733333333333334,124.92069795998661L60.199999999999996,124.7812778191133L60.66666666666667,125.64304475350814L61.13333333333333,125.27771190079777L61.6,125.71994043480265L62.06666666666667,125.84884740005839L62.53333333333333,125.86358031359585L63,125.73284077644348L63.46666666666666,126.57960955663161L63.93333333333333,126.17087368531661L64.4,126.97566210139883L64.86666666666666,126.89927278865468L65.33333333333333,126.93643059513785L65.8,127.53165476972407L66.26666666666667,127.7005889632485L66.73333333333333,127.44453526626933L67.2,127.82064653526652L67.66666666666667,127.58682482892817L68.13333333333334,127.59835074164651L68.6,127.73560073158957L69.06666666666666,128.21074322136965L69.53333333333333,128.57255560701546L70,128.67378109151667L70.46666666666667,128.15456042506477L70.93333333333334,128.7459265535528L71.4,128.65981978719887L71.86666666666666,129.0765852169557L72.33333333333334,129.57666032964534L72.8,129.23264318162745L73.26666666666667,129.33027586069974L73.73333333333332,129.1690818721598L74.2,129.46704359488055L74.66666666666667,129.5848827903921L75.13333333333333,129.29210531711578L75.60000000000001,129.97008458050814L76.06666666666666,129.83592102744362L76.53333333333333,129.28154391592201L77,130.467025030743L77.46666666666667,130.594292326407L77.93333333333334,130.51276698979464L78.4,130.65836000442505L78.86666666666667,130.48366285454142L79.33333333333333,130.33165583827278L79.8,130.45689765973523L80.26666666666667,130.8457645936446L80.73333333333333,130.76660231026736L81.19999999999999,131.2656405730681L81.66666666666667,130.61555980552328L82.13333333333334,130.8152860294689L82.6,131.41784049164164L83.06666666666668,131.34612905979156L83.53333333333333,131.40532595461067L84,131.51665469733152L84.46666666666667,131.788044127551L84.93333333333334,131.80395856770602L85.39999999999999,131.80923926830292L85.86666666666666,132.58899861032313L86.33333333333334,132.16338378732857L86.8,131.64664673805237L87.26666666666667,132.3053598837419L87.73333333333333,131.97429130294105L88.2,131.68804839524356L88.66666666666666,132.41943748430774L89.13333333333334,131.95133592865685L89.60000000000001,132.24283542416313L90.06666666666666,132.4231267408891L90.53333333333333,133.04866069013423L91,133.1328384334391L91.46666666666667,132.9971316619353L91.93333333333332,133.2994577993046L92.4,132.99973584305155L92.86666666666666,133.51483322273603L93.33333333333333,133.1473061063073L93.80000000000001,133.16215958378532L94.26666666666667,133.11460916562513L94.73333333333333,133.25759799913928L95.2,132.8291378671473L95.66666666666667,133.7622786543586L96.13333333333333,132.80176985263824L96.6,134.05385048822924L97.06666666666666,133.3251620314338L97.53333333333333,133.15557679263028L98,133.82492367787793L98.46666666666667,134.45079520615664L98.93333333333334,134.3682330196554L99.39999999999999,134.273976130919L99.86666666666667,134.5576871958646L100.33333333333333,133.9405927224593L100.8,134.26925002444875L101.26666666666668,134.39692723751068L101.73333333333333,134.69050043279475L102.2,134.6919713128697L102.66666666666666,134.4448875730688L103.13333333333334,134.49550031531942L103.6,135.01901305805555L104.06666666666666,134.7704584381797L104.53333333333333,134.51623731309718L105,134.75099941817197L105.46666666666667,135.2556559606032L105.93333333333334,134.2430635365573L106.4,135.54443071105263L106.86666666666666,135.4835459210656L107.33333333333334,135.20851545984095L107.8,135.31617905876854L108.26666666666667,135.69238677891818L108.73333333333332,135.11384865370664L109.2,135.46314650232142L109.66666666666667,135.78589617122304L110.13333333333333,135.9285956512798L110.60000000000001,135.98263240944257L111.06666666666666,135.70010287111458L111.53333333333333,134.79787467826498L112,135.75987847284838L112.46666666666667,135.74975110184064L112.93333333333334,135.61250111189756L113.4,136.062903881073L113.86666666666667,136.50238355723295L114.33333333333333,136.697962381623L114.8,136.10035104101357L115.26666666666667,136.57180427421224L115.73333333333333,135.88152748888191L116.19999999999999,137.09283339977264L116.66666666666667,136.87784378095105L117.13333333333334,136.6244424906644L117.6,136.90070270408285L118.06666666666668,136.82879836992785L118.53333333333333,137.12471050565895L119,137.47617850520393L119.46666666666667,136.84625602852216L119.93333333333334,137.40268272703346L120.39999999999999,137.11166548728943L120.86666666666666,137.4178978963332L121.33333333333334,137.78051806038079L121.8,137.51835177161476L122.26666666666667,137.8461530696262L122.73333333333333,137.20654930851677L123.2,137.39740202643654L123.66666666666666,137.91933538155124L124.13333333333334,137.66993681409141L124.60000000000001,138.24917421015826L125.06666666666666,137.5604165304791L125.53333333333333,138.40991005572405L126,137.14621911265633L126.46666666666667,137.62601537054238L126.93333333333332,137.66359515081754L127.4,138.19637926058337L127.86666666666666,137.78834266012367L128.33333333333331,138.0406588749452L128.8,138.29407222162595L129.26666666666668,138.09615445678887L129.73333333333332,138.54593029347333L130.20000000000002,138.1634894175963L130.66666666666666,137.29477800022474L131.13333333333333,137.80883853002027L131.6,138.4335888136517L132.06666666666666,139.182399392128L132.53333333333333,138.37493445656517L133,138.3450587120923L133.46666666666667,137.93586469780317L133.93333333333334,138.89044175364754L134.4,138.38365122946826L134.86666666666667,138.56077171455732L135.33333333333334,138.63741421157664L135.79999999999998,138.8968798680739L136.26666666666668,139.59776628017426L136.73333333333335,138.84589337760752L137.2,138.95817457545888L137.66666666666666,139.33731199936435L138.13333333333333,138.88350932706487L138.6,139.20012229139155L139.06666666666666,139.17197061126885L139.53333333333333,139.57131455161354L140,138.86197660727933L140.46666666666667,138.96871186386457L140.93333333333334,138.89728978547183L141.4,138.7036038149487L141.86666666666667,139.50877803564072L142.33333333333331,139.2775725668127L142.8,139.75623552365735L143.26666666666668,139.5462975339456L143.73333333333332,139.31917918270287L144.20000000000002,139.35251511227003L144.66666666666669,139.96496787396345L145.13333333333333,139.67442083358765L145.6,139.67557824741712L146.06666666666666,139.83021355759016L146.53333333333333,139.86767277392474L147,139.63077668710187L147.46666666666664,140.17424276200208L147.93333333333334,139.90633762966505L148.4,139.82132799517026L148.86666666666665,140.44680166244507L149.33333333333334,140.19352093609896L149.8,139.9682231003588L150.26666666666665,140.2697414593263L150.73333333333332,139.7697748541832L151.20000000000002,139.8833340298046L151.66666666666666,139.9148615002632L152.13333333333333,139.32180747660723L152.60000000000002,140.22805044867775L153.06666666666666,140.11676993153313L153.53333333333333,140.52815820954063L154,140.09675631739876L154.46666666666667,139.98376379229805L154.93333333333334,140.46206505732104L155.4,139.90830282189629L155.86666666666667,140.2599998929284L156.33333333333334,140.20555321736768L156.8,140.99251022663984L157.26666666666665,141.00938917831942L157.73333333333335,140.23698423667386L158.2,140.56038495085457L158.66666666666666,141.01624926653776L159.13333333333333,140.56178349256516L159.6,140.37015916542575L160.06666666666666,140.79917389154434L160.53333333333333,140.81402736902237L161,140.52601217139852L161.46666666666667,140.86046859892932L161.93333333333334,140.24207203496587L162.39999999999998,140.51707838340238L162.86666666666667,140.51426924358717L163.33333333333334,140.3630458929322L163.79999999999998,140.8437463803725L164.26666666666668,141.37609645995227L164.73333333333335,141.49574411457237L165.2,140.08039579066363L165.66666666666666,141.01826268434525L166.13333333333335,141.50904231721705L166.6,140.80328512191772L167.06666666666666,141.22408944368362L167.53333333333336,141.51572155952454L168,140.86269903182983L168.46666666666667,141.2692406394265L168.93333333333334,140.8069020401348L169.4,140.99677819013596L169.86666666666667,141.42962684956464L170.33333333333331,141.33395936272362L170.79999999999998,141.34024074402723L171.26666666666668,140.6684584671801L171.73333333333332,141.665570481257L172.2,141.6793147704818L172.66666666666669,141.43516073443672L173.13333333333333,141.57859565453097L173.6,141.61588608134878L174.06666666666666,141.26211531053892L174.53333333333333,141.77494608814067L175,141.79587598822334L175.46666666666667,141.73388200998306L175.93333333333334,141.47096822478554L176.4,141.7783459912647L176.86666666666667,141.10760056430644L177.33333333333331,142.22442051497373L177.8,141.53043036027387L178.26666666666668,141.63705710931256L178.73333333333332,141.84586179798302L179.20000000000002,141.86989019133827L179.66666666666669,141.49326049739665L180.13333333333333,141.78255367279053L180.6,141.7207405404611L181.06666666666666,141.70717709714717L181.53333333333333,141.70457291603088L182,142.08644714138725L182.46666666666664,141.57874033125964L182.93333333333334,142.21059183099052L183.4,141.89426822012123L183.86666666666665,141.9723815972155L184.33333333333334,142.06702429056168L184.8,141.89667949893257L185.26666666666665,142.65025235306135L185.73333333333332,142.03116857463664L186.20000000000002,142.26309742710808L186.66666666666666,141.83431177247655L187.13333333333333,142.57421267574486L187.60000000000002,142.59698720411822L188.06666666666666,142.14949002591047L188.53333333333333,142.4362272457643L189,142.15368565104225L189.46666666666667,142.39589860764417L189.93333333333334,142.728233109821L190.4,142.27119932391426L190.86666666666667,142.50666069984436L191.33333333333334,142.72969193350187L191.8,141.6591203104366L192.26666666666665,142.47250493548134L192.73333333333335,142.01621864600614L193.2,142.5857627012513L193.66666666666666,142.63477194309235L194.13333333333333,142.39090726050463L194.6,142.3513020060279L195.06666666666666,142.71382571892306L195.53333333333333,142.9575095555999L196,143.17706854776904L196.46666666666667,142.9719892848622L196.93333333333334,142.4285714355382L197.39999999999998,142.38526486808604L197.86666666666667,143.09809916669673L198.33333333333334,142.52423892237923L198.79999999999998,142.2920568856326L199.26666666666668,142.57389920949936L199.73333333333335,143.13219464908948L200.2,142.7460765730251L200.66666666666666,143.26949286460876L201.13333333333335,142.85899675976148L201.6,142.7143441438675L202.06666666666666,142.72511050376025L202.53333333333336,142.89795096895912L203,142.63958244432104L203.46666666666667,142.7169362685897L203.93333333333334,143.27306155724958L204.4,142.78997390378606L204.86666666666667,143.3100144050338L205.33333333333331,142.75306928157806L205.79999999999998,143.38635549220172L206.26666666666668,143.17858765342018L206.73333333333332,143.14134545217863L207.2,142.6836726773869L207.66666666666669,143.03977033224973L208.13333333333333,143.42889045043424L208.6,142.41489948467776L209.06666666666666,143.30038134618238L209.53333333333333,143.25788255713204L210,142.7355754538016L210.46666666666667,142.78630875999278L210.93333333333334,142.9325407635082L211.4,143.11929430744865L211.86666666666667,142.49930629946968L212.33333333333331,143.52219488404015L212.8,142.71104069189593L213.26666666666668,143.05150120366704L213.73333333333332,143.0762047550895L214.20000000000002,142.65977690436623L214.66666666666669,143.507534308867L215.13333333333333,143.0981112230908L215.6,142.517824920741L216.06666666666666,143.47299273989418L216.53333333333333,143.20642586729744L217,143.60632440176877L217.46666666666664,143.73561717163435L217.93333333333334,142.90252034230664L218.4,143.37579409100792L218.86666666666665,143.67787910049614L219.33333333333334,143.4472041130066L219.8,143.44068160382184L220.26666666666665,143.83552850918338L220.73333333333332,143.4955502531745L221.20000000000002,143.81471917304125L221.66666666666666,142.8788536407731L222.13333333333333,143.98168817433444L222.60000000000002,142.833654219454L223.06666666666666,143.1816017519344L223.53333333333333,143.90941009196368L224,143.84633103825828L224.46666666666667,144.13151298327878L224.93333333333334,143.9437708150257L225.4,144.01836372505537L225.86666666666667,143.49659915945747L226.33333333333334,143.7023535804315L226.8,143.571589930491L227.26666666666665,143.6515720486641L227.73333333333335,143.64172197471967L228.2,143.4967558925802L228.66666666666666,144.3493117419156L229.13333333333333,144.09317365017804L229.6,143.14620417898354L230.06666666666666,144.01779707453468L230.53333333333333,143.9729593450373L231,143.49788919362155L231.46666666666667,144.21456948193637L231.93333333333334,143.85737469521436L232.39999999999998,144.10549528490415L232.86666666666667,143.63982912085274L233.33333333333334,144.35829375548795L233.79999999999998,143.68552285432816L234.26666666666668,144.15727749737826L234.73333333333335,143.6017309156331L235.2,143.94979901205411L235.66666666666666,143.91200221668592L236.13333333333335,144.36913245374507L236.6,143.87673726406965L237.06666666666666,144.27064377069473L237.53333333333336,143.63487394289538L238,144.11534535884857L238.46666666666667,144.54310621998528L238.93333333333334,144.23488450592217L239.4,144.14929616451263L239.86666666666667,144.2165467305617L240.33333333333331,144.40304709022698L240.79999999999998,144.30508888851514L241.26666666666668,144.35972846638074L241.73333333333332,144.46993596445432L242.2,143.71293909441343L242.66666666666669,143.95617684451017L243.13333333333333,143.55110611698845L243.6,144.1960749734532L244.06666666666666,144.58620782873848L244.53333333333333,144.38692769137296L245,144.12624433907595L245.46666666666667,144.21599213643506L245.93333333333334,144.30821149457586L246.4,144.6645623337139L246.86666666666667,144.34770824150607L247.33333333333331,144.08325123786926L247.8,144.41330708156934L248.26666666666668,144.69742806391284L248.73333333333332,144.32935840975156L249.20000000000002,144.41143834049052L249.66666666666669,144.33680926127866L250.13333333333333,144.8827830661427L250.6,144.58688298680565L251.06666666666666,144.17402382872322L251.53333333333333,144.26432622020897L252,144.5807824514129L252.46666666666664,144.30893487821928L252.93333333333334,144.90590722994372L253.4,144.34337999603966L253.86666666666665,144.88122779130936L254.33333333333334,144.72620667652652L254.8,145.1828787706115L255.26666666666665,144.75541931932625L255.73333333333332,144.91709556362846L256.2,144.3619468428872" style="fill: none;" fill="none"></path></g></g></g></g></g></g><g transform="translate(50, 178)" clip-path="url(#clip_1)"><clipPath id="clip_1"><rect width="280" height="22"></rect></clipPath><g><g><line x1="0" y1="0" x2="0" y2="5" style="visibility: inherit;" fill="rgb(0, 0, 0)" stroke="rgb(204, 204, 204)" stroke-width="1px"></line><line x1="23.333333333333332" y1="0" x2="23.333333333333332" y2="5" style="visibility: inherit;" fill="rgb(0, 0, 0)" stroke="rgb(204, 204, 204)" stroke-width="1px"></line><line x1="46.666666666666664" y1="0" x2="46.666666666666664" y2="5" style="visibility: inherit;" fill="rgb(0, 0, 0)" stroke="rgb(204, 204, 204)" stroke-width="1px"></line><line x1="70" y1="0" x2="70" y2="5" style="visibility: inherit;" fill="rgb(0, 0, 0)" stroke="rgb(204, 204, 204)" stroke-width="1px"></line><line x1="93.33333333333333" y1="0" x2="93.33333333333333" y2="5" style="visibility: inherit;" fill="rgb(0, 0, 0)" stroke="rgb(204, 204, 204)" stroke-width="1px"></line><line x1="116.66666666666667" y1="0" x2="116.66666666666667" y2="5" style="visibility: inherit;" fill="rgb(0, 0, 0)" stroke="rgb(204, 204, 204)" stroke-width="1px"></line><line x1="140" y1="0" x2="140" y2="5" style="visibility: inherit;" fill="rgb(0, 0, 0)" stroke="rgb(204, 204, 204)" stroke-width="1px"></line><line x1="163.33333333333334" y1="0" x2="163.33333333333334" y2="5" style="visibility: inherit;" fill="rgb(0, 0, 0)" stroke="rgb(204, 204, 204)" stroke-width="1px"></line><line x1="186.66666666666666" y1="0" x2="186.66666666666666" y2="5" style="visibility: inherit;" fill="rgb(0, 0, 0)" stroke="rgb(204, 204, 204)" stroke-width="1px"></line><line x1="210" y1="0" x2="210" y2="5" style="visibility: inherit;" fill="rgb(0, 0, 0)" stroke="rgb(204, 204, 204)" stroke-width="1px"></line><line x1="233.33333333333334" y1="0" x2="233.33333333333334" y2="5" style="visibility: inherit;" fill="rgb(0, 0, 0)" stroke="rgb(204, 204, 204)" stroke-width="1px"></line><line x1="256.66666666666663" y1="0" x2="256.66666666666663" y2="5" style="visibility: inherit;" fill="rgb(0, 0, 0)" stroke="rgb(204, 204, 204)" stroke-width="1px"></line><line x1="280" y1="0" x2="280" y2="5" style="visibility: inherit;" fill="rgb(0, 0, 0)" stroke="rgb(204, 204, 204)" stroke-width="1px"></line></g><g transform="translate(0, 8)"><text x="0" y="0" dx="0em" dy="0.95em" style="text-anchor: middle; visibility: hidden; font-family: Roboto, sans-serif; font-size: 12px; font-weight: 200;" fill="rgb(50, 49, 63)" stroke="none" stroke-width="1px">-50</text><text x="23.333333333333332" y="0" dx="0em" dy="0.95em" style="text-anchor: middle; visibility: inherit; font-family: Roboto, sans-serif; font-size: 12px; font-weight: 200;" fill="rgb(50, 49, 63)" stroke="none" stroke-width="1px">0</text><text x="46.666666666666664" y="0" dx="0em" dy="0.95em" style="text-anchor: middle; visibility: hidden; font-family: Roboto, sans-serif; font-size: 12px; font-weight: 200;" fill="rgb(50, 49, 63)" stroke="none" stroke-width="1px">50</text><text x="70" y="0" dx="0em" dy="0.95em" style="text-anchor: middle; visibility: inherit; font-family: Roboto, sans-serif; font-size: 12px; font-weight: 200;" fill="rgb(50, 49, 63)" stroke="none" stroke-width="1px">100</text><text x="93.33333333333333" y="0" dx="0em" dy="0.95em" style="text-anchor: middle; visibility: hidden; font-family: Roboto, sans-serif; font-size: 12px; font-weight: 200;" fill="rgb(50, 49, 63)" stroke="none" stroke-width="1px">150</text><text x="116.66666666666667" y="0" dx="0em" dy="0.95em" style="text-anchor: middle; visibility: inherit; font-family: Roboto, sans-serif; font-size: 12px; font-weight: 200;" fill="rgb(50, 49, 63)" stroke="none" stroke-width="1px">200</text><text x="140" y="0" dx="0em" dy="0.95em" style="text-anchor: middle; visibility: hidden; font-family: Roboto, sans-serif; font-size: 12px; font-weight: 200;" fill="rgb(50, 49, 63)" stroke="none" stroke-width="1px">250</text><text x="163.33333333333334" y="0" dx="0em" dy="0.95em" style="text-anchor: middle; visibility: inherit; font-family: Roboto, sans-serif; font-size: 12px; font-weight: 200;" fill="rgb(50, 49, 63)" stroke="none" stroke-width="1px">300</text><text x="186.66666666666666" y="0" dx="0em" dy="0.95em" style="text-anchor: middle; visibility: hidden; font-family: Roboto, sans-serif; font-size: 12px; font-weight: 200;" fill="rgb(50, 49, 63)" stroke="none" stroke-width="1px">350</text><text x="210" y="0" dx="0em" dy="0.95em" style="text-anchor: middle; visibility: inherit; font-family: Roboto, sans-serif; font-size: 12px; font-weight: 200;" fill="rgb(50, 49, 63)" stroke="none" stroke-width="1px">400</text><text x="233.33333333333334" y="0" dx="0em" dy="0.95em" style="text-anchor: middle; visibility: hidden; font-family: Roboto, sans-serif; font-size: 12px; font-weight: 200;" fill="rgb(50, 49, 63)" stroke="none" stroke-width="1px">450</text><text x="256.66666666666663" y="0" dx="0em" dy="0.95em" style="text-anchor: middle; visibility: inherit; font-family: Roboto, sans-serif; font-size: 12px; font-weight: 200;" fill="rgb(50, 49, 63)" stroke="none" stroke-width="1px">500</text><text x="280" y="0" dx="0em" dy="0.95em" style="text-anchor: middle; visibility: hidden; font-family: Roboto, sans-serif; font-size: 12px; font-weight: 200;" fill="rgb(50, 49, 63)" stroke="none" stroke-width="1px">550</text></g><line x1="0" y1="0" x2="280" y2="0" fill="rgb(0, 0, 0)" stroke="rgb(204, 204, 204)" stroke-width="1px"></line></g></g></g></g></svg>