<svg viewBox="0 0 330 200" xmlns="http://www.w3.org/2000/svg"><g><g><g><g><g><line x1="51.5625" y1="178" x2="46.5625" y2="178" style="visibility: inherit;" fill="rgb(0, 0, 0)" stroke="rgb(204, 204, 204)" stroke-width="1px"></line><line x1="51.5625" y1="161.81818181818178" x2="46.5625" y2="161.81818181818178" style="visibility: inherit;" fill="rgb(0, 0, 0)" stroke="rgb(204, 204, 204)" stroke-width="1px"></line><line x1="51.5625" y1="145.6363636363636" x2="46.5625" y2="145.6363636363636" style="visibility: inherit;" fill="rgb(0, 0, 0)" stroke="rgb(204, 204, 204)" stroke-width="1px"></line><line x1="51.5625" y1="129.45454545454547" x2="46.5625" y2="129.45454545454547" style="visibility: inherit;" fill="rgb(0, 0, 0)" stroke="rgb(204, 204, 204)" stroke-width="1px"></line><line x1="51.5625" y1="113.27272727272725" x2="46.5625" y2="113.27272727272725" style="visibility: inherit;" fill="rgb(0, 0, 0)" stroke="rgb(204, 204, 204)" stroke-width="1px"></line><line x1="51.5625" y1="97.09090909090905" x2="46.5625" y2="97.09090909090905" style="visibility: inherit;" fill="rgb(0, 0, 0)" stroke="rgb(204, 204, 204)" stroke-width="1px"></line><line x1="51.5625" y1="80.90909090909089" x2="46.5625" y2="80.90909090909089" style="visibility: inherit;" fill="rgb(0, 0, 0)" stroke="rgb(204, 204, 204)" stroke-width="1px"></line><line x1="51.5625" y1="64.7272727272727" x2="46.5625" y2="64.7272727272727" style="visibility: inherit;" fill="rgb(0, 0, 0)" stroke="rgb(204, 204, 204)" stroke-width="1px"></line><line x1="51.5625" y1="48.545454545454504" x2="46.5625" y2="48.545454545454504" style="visibility: inherit;" fill="rgb(0, 0, 0)" stroke="rgb(204, 204, 204)" stroke-width="1px"></line><line x1="51.5625" y1="32.36363636363632" x2="46.5625" y2="32.36363636363632" style="visibility: inherit;" fill="rgb(0, 0, 0)" stroke="rgb(204, 204, 204)" stroke-width="1px"></line><line x1="51.5625" y1="16.18181818181811" x2="46.5625" y2="16.18181818181811" style="visibility: inherit;" fill="rgb(0, 0, 0)" stroke="rgb(204, 204, 204)" stroke-width="1px"></line></g><g transform="translate(41.5625, 0)"><text x="0" y="178" dx="0em" dy="0.3em" style="text-anchor: end; visibility: hidden; font-family: Roboto, sans-serif; font-size: 12px; font-weight: 200;" fill="rgb(50, 49, 63)" stroke="none" stroke-width="1px">0.18</text><text x="0" y="161.81818181818178" dx="0em" dy="0.3em" style="text-anchor: end; visibility: inherit; font-family: Roboto, sans-serif; font-size: 12px; font-weight: 200;" fill="rgb(50, 49, 63)" stroke="none" stroke-width="1px">0.19</text><text x="0" y="145.6363636363636" dx="0em" dy="0.3em" style="text-anchor: end; visibility: hidden; font-family: Roboto, sans-serif; font-size: 12px; font-weight: 200;" fill="rgb(50, 49, 63)" stroke="none" stroke-width="1px">0.2</text><text x="0" y="129.45454545454547" dx="0em" dy="0.3em" style="text-anchor: end; visibility: inherit; font-family: Roboto, sans-serif; font-size: 12px; font-weight: 200;" fill="rgb(50, 49, 63)" stroke="none" stroke-width="1px">0.21</text><text x="0" y="113.27272727272725" dx="0em" dy="0.3em" style="text-anchor: end; visibility: hidden; font-family: Roboto, sans-serif; font-size: 12px; font-weight: 200;" fill="rgb(50, 49, 63)" stroke="none" stroke-width="1px">0.22</text><text x="0" y="97.09090909090905" dx="0em" dy="0.3em" style="text-anchor: end; visibility: inherit; font-family: Roboto, sans-serif; font-size: 12px; font-weight: 200;" fill="rgb(50, 49, 63)" stroke="none" stroke-width="1px">0.23</text><text x="0" y="80.90909090909089" dx="0em" dy="0.3em" style="text-anchor: end; visibility: hidden; font-family: Roboto, sans-serif; font-size: 12px; font-weight: 200;" fill="rgb(50, 49, 63)" stroke="none" stroke-width="1px">0.24</text><text x="0" y="64.7272727272727" dx="0em" dy="0.3em" style="text-anchor: end; visibility: inherit; font-family: Roboto, sans-serif; font-size: 12px; font-weight: 200;" fill="rgb(50, 49, 63)" stroke="none" stroke-width="1px">0.25</text><text x="0" y="48.545454545454504" dx="0em" dy="0.3em" style="text-anchor: end; visibility: hidden; font-family: Roboto, sans-serif; font-size: 12px; font-weight: 200;" fill="rgb(50, 49, 63)" stroke="none" stroke-width="1px">0.26</text><text x="0" y="32.36363636363632" dx="0em" dy="0.3em" style="text-anchor: end; visibility: inherit; font-family: Roboto, sans-serif; font-size: 12px; font-weight: 200;" fill="rgb(50, 49, 63)" stroke="none" stroke-width="1px">0.27</text><text x="0" y="16.18181818181811" dx="0em" dy="0.3em" style="text-anchor: end; visibility: hidden; font-family: Roboto, sans-serif; font-size: 12px; font-weight: 200;" fill="rgb(50, 49, 63)" stroke="none" stroke-width="1px">0.28</text></g><line x1="51.5625" y1="0" x2="51.5625" y2="178" fill="rgb(0, 0, 0)" stroke="rgb(204, 204, 204)" stroke-width="1px"></line></g></g><g transform="translate(51, 0)" clip-path="url(#clip_0)"><clipPath id="clip_0"><rect width="278" height="178"></rect></clipPath><g><g><g><line x1="0" y1="0" x2="0" y2="178" fill="rgb(0, 0, 0)" stroke="rgb(60, 60, 60)" stroke-width="1px" opacity="0.25"></line><line x1="23.203125" y1="0" x2="23.203125" y2="178" fill="rgb(0, 0, 0)" stroke="rgb(60, 60, 60)" stroke-width="1px" opacity="0.25"></line><line x1="46.40625" y1="0" x2="46.40625" y2="178" fill="rgb(0, 0, 0)" stroke="rgb(60, 60, 60)" stroke-width="1px" opacity="0.25"></line><line x1="69.609375" y1="0" x2="69.609375" y2="178" fill="rgb(0, 0, 0)" stroke="rgb(60, 60, 60)" stroke-width="1px" opacity="0.25"></line><line x1="92.8125" y1="0" x2="92.8125" y2="178" fill="rgb(0, 0, 0)" stroke="rgb(60, 60, 60)" stroke-width="1px" opacity="0.25"></line><line x1="116.015625" y1="0" x2="116.015625" y2="178" fill="rgb(0, 0, 0)" stroke="rgb(60, 60, 60)" stroke-width="1px" opacity="0.25"></line><line x1="139.21875" y1="0" x2="139.21875" y2="178" fill="rgb(0, 0, 0)" stroke="rgb(60, 60, 60)" stroke-width="1px" opacity="0.25"></line><line x1="162.421875" y1="0" x2="162.421875" y2="178" fill="rgb(0, 0, 0)" stroke="rgb(60, 60, 60)" stroke-width="1px" opacity="0.25"></line><line x1="185.625" y1="0" x2="185.625" y2="178" fill="rgb(0, 0, 0)" stroke="rgb(60, 60, 60)" stroke-width="1px" opacity="0.25"></line><line x1="208.828125" y1="0" x2="208.828125" y2="178" fill="rgb(0, 0, 0)" stroke="rgb(60, 60, 60)" stroke-width="1px" opacity="0.25"></line><line x1="232.03125" y1="0" x2="232.03125" y2="178" fill="rgb(0, 0, 0)" stroke="rgb(60, 60, 60)" stroke-width="1px" opacity="0.25"></line><line x1="255.234375" y1="0" x2="255.234375" y2="178" fill="rgb(0, 0, 0)" stroke="rgb(60, 60, 60)" stroke-width="1px" opacity="0.25"></line><line x1="278.4375" y1="0" x2="278.4375" y2="178" fill="rgb(0, 0, 0)" stroke="rgb(60, 60, 60)" stroke-width="1px" opacity="0.25"></line></g><g><line x1="0" y1="178" x2="278.4375" y2="178" fill="rgb(0, 0, 0)" stroke="rgb(60, 60, 60)" stroke-width="1px" opacity="0.25"></line><line x1="0" y1="161.81818181818178" x2="278.4375" y2="161.81818181818178" fill="rgb(0, 0, 0)" stroke="rgb(60, 60, 60)" stroke-width="1px" opacity="0.25"></line><line x1="0" y1="145.6363636363636" x2="278.4375" y2="145.6363636363636" fill="rgb(0, 0, 0)" stroke="rgb(60, 60, 60)" stroke-width="1px" opacity="0.25"></line><line x1="0" y1="129.45454545454547" x2="278.4375" y2="129.45454545454547" fill="rgb(0, 0, 0)" stroke="rgb(60, 60, 60)" stroke-width="1px" opacity="0.25"></line><line x1="0" y1="113.27272727272725" x2="278.4375" y2="113.27272727272725" fill="rgb(0, 0, 0)" stroke="rgb(60, 60, 60)" stroke-width="1px" opacity="0.25"></line><line x1="0" y1="97.09090909090905" x2="278.4375" y2="97.09090909090905" fill="rgb(0, 0, 0)" stroke="rgb(60, 60, 60)" stroke-width="1px" opacity="0.25"></line><line x1="0" y1="80.90909090909089" x2="278.4375" y2="80.90909090909089" fill="rgb(0, 0, 0)" stroke="rgb(60, 60, 60)" stroke-width="1px" opacity="0.25"></line><line x1="0" y1="64.7272727272727" x2="278.4375" y2="64.7272727272727" fill="rgb(0, 0, 0)" stroke="rgb(60, 60, 60)" stroke-width="1px" opacity="0.25"></line><line x1="0" y1="48.545454545454504" x2="278.4375" y2="48.545454545454504" fill="rgb(0, 0, 0)" stroke="rgb(60, 60, 60)" stroke-width="1px" opacity="0.25"></line><line x1="0" y1="32.36363636363632" x2="278.4375" y2="32.36363636363632" fill="rgb(0, 0, 0)" stroke="rgb(60, 60, 60)" stroke-width="1px" opacity="0.25"></line><line x1="0" y1="16.18181818181811" x2="278.4375" y2="16.18181818181811" fill="rgb(0, 0, 0)" stroke="rgb(60, 60, 60)" stroke-width="1px" opacity="0.25"></line></g></g></g><g><g><line x1="0" y1="469.2727272727273" x2="278.4375" y2="469.2727272727273" fill="rgb(0, 0, 0)" stroke="rgb(153, 153, 153)" stroke-width="1.5px"></line></g></g><g><g><line x1="23.203125" y1="0" x2="23.203125" y2="178" fill="rgb(0, 0, 0)" stroke="rgb(153, 153, 153)" stroke-width="1.5px"></line></g></g><g><g><g><g><g><path stroke="rgb(255, 112, 67)" stroke-width="2px" d="M29.2359375,-3.252649719335754L29.700000000000003,7.306904079809452L30.1640625,15.098789724265416L30.628125,21.830416228709105L31.092187499999998,27.175554337794306L31.55625,31.416444159930624L32.0203125,35.12907172853814L32.484375,38.7108231540166L32.9484375,41.428333587733334L33.4125,43.668450924717106L33.8765625,45.83387262069129L34.340625,47.69857520546624L34.8046875,49.887578596144664L35.268750000000004,51.80096289380206L35.7328125,53.59091361331172L36.196875,54.974954620689466L36.660937499999996,56.54323037814064L37.125,57.80705624127279L37.589062500000004,59.19245780480221L38.053124999999994,60.473508288420994L38.5171875,61.82570660897376L38.98125,63.22810718425984L39.4453125,64.40843828676256L39.909375000000004,65.33722072750165L40.373437499999994,65.65695028911891L40.8375,67.06534570418175L41.3015625,68.13760257646784L41.765625,69.37022501531692L42.229687500000004,69.65969952973182L42.693749999999994,70.86142813725762L43.1578125,71.82629381499882L43.621875,72.6340918063354L44.0859375,73.02261844719553L44.550000000000004,74.07529916436498L45.014062499999994,74.42792263615989L45.478125,74.9612770540556L45.9421875,75.4891998090214L46.40625,76.05379434334714L46.8703125,76.52672426212092L47.334375,76.64619696540787L47.7984375,77.65519288693598L48.2625,78.62278380755028L48.7265625,79.20718676090145L49.190625,80.03976600638265L49.6546875,80.08453672473189L50.11875,80.0301679951441L50.5828125,80.89884419661985L51.04687499999999,81.64803150656248L51.5109375,82.19933843882886L51.975,82.76329325924789L52.4390625,83.51316534833221L52.903125,84.11687031925659L53.36718750000001,84.12744204507644L53.83125,84.77578324153757L54.2953125,85.11506739032379L54.759375,85.6148586590145L55.2234375,85.95301488263817L55.6875,86.68798139932888L56.1515625,86.93298221267058L56.615625,87.07364585995927L57.0796875,87.3928929594446L57.54375,87.72187446626846L58.0078125,88.11575365814352L58.471875,88.6191833497614L58.9359375,88.7710281398992L59.400000000000006,89.05638763502569L59.864062499999996,89.48155921651484L60.328125,89.9682606726826L60.7921875,90.28468368795431L61.25625,90.4570123227163L61.720312500000006,90.92132007094389L62.184374999999996,91.07903213562413L62.6484375,91.6796324750945L63.1125,91.79610629467967L63.5765625,91.88458636862408L64.040625,92.01667755196634L64.5046875,91.90294315102507L64.96875,92.40675429566927L65.4328125,92.48946028877741L65.896875,92.89798826804154L66.3609375,93.18984528407958L66.825,94.23455343911894L67.2890625,94.44195085057791L67.753125,94.80030263238653L68.2171875,94.94999698102934L68.68125,95.30932704551928L69.1453125,95.52060407258334L69.609375,95.6931652960072L70.0734375,95.47066819941881L70.53750000000001,95.89734858980759L71.0015625,96.26362942664232L71.465625,96.77224019499937L71.92968750000001,97.41662535919684L72.39375,97.29553759119364L72.8578125,97.29880163248879L73.32187499999999,97.7997500944904L73.7859375,97.56614375405142L74.25,97.79950632789944L74.7140625,97.91131191011526L75.17812500000001,97.8278446555781L75.6421875,98.06763859644329L76.10624999999999,98.80401439049179L76.5703125,98.77033568531905L77.034375,99.17950005759808L77.4984375,99.37547101418002L77.9625,99.55214920923821L78.4265625,99.6548382066287L78.890625,99.88339890484684L79.3546875,100.42952679064673L79.81875000000001,100.91382090348264L80.2828125,100.36938116392268L80.74687499999999,101.29013936511414L81.2109375,101.50895045925766L81.675,102.42566778552829L82.1390625,102.37292670402486L82.603125,102.6557128121252L83.0671875,102.14303115382923L83.53125,102.48723904714066L83.99531250000001,102.9853452621134L84.45937500000001,103.48981391278478L84.92343749999999,103.79921774851373L85.38749999999999,103.85354180588395L85.8515625,103.77691495526638L86.315625,104.06471770308062L86.7796875,104.44105596017738L87.24375,104.82606118667712L87.7078125,104.92329621923751L88.171875,105.03547627207404L88.63593750000001,105.0357796881656L89.10000000000001,105.48616678213351L89.56406249999999,104.56634613906684L90.02812499999999,105.330626179624L90.4921875,105.67642351650824L90.95625,106.09776305897665L91.4203125,106.3156611123843L91.884375,107.02355399560275L92.3484375,106.86954423034447L92.8125,107.24892918342177L93.27656250000001,107.84723157926693L93.740625,107.9680268957871L94.20468749999999,108.19452693105413L94.66875,108.65220728703382L95.1328125,108.24214734980652L95.596875,108.28287030883328L96.0609375,108.62195667890234L96.525,109.18025229082474L96.9890625,109.36740862172606L97.453125,109.24240364988249L97.91718750000001,109.28386543336545L98.38125,109.84855066839852L98.84531249999999,109.88590373242116L99.309375,110.42590139025252L99.7734375,110.41829127769672L100.2375,110.2501537007153L100.70156250000001,110.65928555847655L101.165625,110.5798979014353L101.6296875,111.09028344973737L102.09374999999999,111.46338436271543L102.5578125,111.51215713345123L103.021875,111.63430325570663L103.48593749999999,111.65791858554566L103.95,111.9333643103337L104.4140625,112.41063193316708L104.878125,112.55071468905426L105.34218750000001,113.12155330902551L105.80625,113.16057292980946L106.2703125,113.45157877965028L106.73437500000001,113.22998024550121L107.1984375,113.85882126244492L107.6625,113.73330672463418L108.12656249999999,114.39424822909567L108.590625,114.68877745759066L109.0546875,114.79010877392903L109.51875,114.73280312755128L109.98281250000001,115.20735389076721L110.446875,115.20954998781117L110.91093749999999,115.3163273361315L111.375,115.52052762452514L111.8390625,115.74167874606158L112.303125,115.78998430570081L112.7671875,115.75151935057272L113.23125,115.72542145642406L113.6953125,115.88002793936323L114.159375,116.0443200037871L114.62343750000001,116.77852762734857L115.0875,117.08046154052319L115.55156249999999,117.39709717716593L116.015625,117.49607689681054L116.4796875,117.5463211593446L116.94375,117.7451318471626L117.4078125,117.67865334022555L117.871875,117.62733677449752L118.3359375,117.28506748332343L118.80000000000001,117.5697742142414L119.26406250000001,117.88719435940807L119.72812499999999,118.19711084393847L120.19218749999999,118.32681042254518L120.65625,118.61873243792817L121.1203125,118.42571230800777L121.584375,118.78330177653382L122.0484375,119.50599870924196L122.5125,119.93716700959446L122.9765625,120.1039886219776L123.44062500000001,120.07869509121636L123.90468750000001,120.12140895446294L124.36874999999999,120.21304844115086L124.83281249999999,120.45177157858987L125.296875,120.74669418851883L125.7609375,120.46115483334059L126.225,120.90489057432211L126.6890625,120.97639714210494L127.153125,121.07238779708577L127.6171875,121.38219230862808L128.08125,121.55377130964443L128.5453125,121.49914646248895L129.009375,121.42546662043966L129.47343750000002,121.64210121190862L129.9375,121.78743699026077L130.4015625,121.93335791888653L130.865625,122.53353870624358L131.3296875,122.99885609575539L131.79375,122.75025617811501L132.2578125,122.61823559732198L132.721875,122.8423235428553L133.1859375,123.0698130918331L133.65,123.32253045992775L134.11406250000002,123.7393822598045L134.578125,123.65807753478087L135.04218749999998,124.13107614431627L135.50625,124.16638820596842L135.9703125,124.13200993403055L136.434375,124.23626792306618L136.8984375,123.93028286295807L137.3625,124.47526454230567L137.8265625,124.36016004752277L138.290625,124.11676189259113L138.75468750000002,124.53087271262818L139.21875,124.59673788282315L139.6828125,124.69496680143934L140.146875,125.10055923964657L140.6109375,125.49510188404366L141.07500000000002,125.29052486774059L141.5390625,125.4811580973994L142.003125,126.06503330999851L142.46718750000002,126.4443420088706L142.93125,126.34190031983958L143.39531250000002,126.06635232843244L143.85937500000003,126.6392992349376L144.32343749999998,126.53170492069832L144.7875,126.53738406137226L145.25156249999998,127.03855665336503L145.715625,127.21430774055557L146.1796875,127.32574800943735L146.64374999999998,127.83147455955064L147.1078125,127.76098866178211L147.571875,127.75001481232306L148.0359375,127.75005669682128L148.5,128.0323557702942L148.9640625,128.55235444378135L149.428125,128.55862278482266L149.8921875,128.9518824784053L150.35625000000002,128.7038174761914L150.8203125,128.97339321932688L151.284375,129.00926026613953L151.74843750000002,129.3310136415882L152.21249999999998,129.65297263211315L152.6765625,129.44824844209137L153.140625,129.33042938800597L153.60468749999998,129.8046194511172L154.06875,129.69477366194226L154.5328125,129.526222871995L154.996875,129.75545688541456L155.4609375,130.39722462826904L155.925,130.25197754755524L156.3890625,130.4612622710813L156.853125,130.16814829750626L157.3171875,130.52409227776604L157.78125,130.8459540198981L158.2453125,130.0477075397867L158.709375,130.51672980362108L159.1734375,130.46751825642218L159.63750000000002,131.0047286548116L160.1015625,131.67262972797525L160.565625,131.80169641075418L161.02968750000002,132.31677387956967L161.49374999999998,132.31150534523948L161.9578125,132.29977936230338L162.421875,132.4543766138253L162.88593749999998,132.24945777291745L163.35,132.1186842799087L163.8140625,132.1165516261561L164.278125,132.09949262536298L164.7421875,132.38623032329517L165.20625,132.52007828568242L165.6703125,132.96862791807166L166.134375,133.0072587333689L166.59843750000002,132.91723250491114L167.0625,133.34030274833853L167.5265625,133.1998622282753L167.99062500000002,132.96270354936615L168.4546875,133.17014022082148L168.91875000000002,133.38451398801297L169.38281249999997,133.35795798914344L169.84687499999998,133.16727419180424L170.3109375,133.6697558393859L170.77499999999998,134.0450878302543L171.2390625,133.80453405468668L171.703125,133.82811360065452L172.16718749999998,133.93295434688838L172.63125,134.70761042905312L173.0953125,134.49689878702003L173.559375,134.9789531872913L174.0234375,135.20939885003293L174.4875,135.3200908631911L174.9515625,135.3311913351532L175.415625,135.38040586679347L175.87968750000002,135.7333931706498L176.34375,135.6099888628377L176.8078125,135.65210240105168L177.27187500000002,135.81783233729985L177.7359375,135.73944330926798L178.20000000000002,136.03498509573757L178.66406250000003,136.04891227024578L179.12812499999998,136.4753746757267L179.5921875,136.2353099382083L180.05624999999998,136.37081547085677L180.5203125,136.49646703034455L180.984375,136.16591435558576L181.44843749999998,136.76880247417182L181.9125,136.76946081099402L182.3765625,137.0429476061476L182.840625,137.39129996488927L183.3046875,137.4975233869633L183.76875,137.21433228994331L184.2328125,137.77729206854332L184.696875,137.830739583382L185.16093750000002,137.75207252415197L185.625,137.71547227026872L186.0890625,137.5793428887781L186.55312500000002,138.03737697367458L187.01718749999998,138.05857911923283L187.48125,138.69563836152244L187.9453125,138.74932270117444L188.40937499999998,138.57103830984843L188.8734375,138.85262114271669L189.3375,138.74041573303214L189.8015625,138.6960864419666L190.265625,138.93521179234003L190.7296875,139.04408997417863L191.19375,139.34419827858702L191.6578125,138.94651121291304L192.121875,139.47493640852005L192.5859375,139.64076576395055L193.05,139.7786027103096L193.5140625,139.89280582451673L193.978125,139.7895674807496L194.44218750000002,140.26593764656965L194.90625,140.69514402930088L195.3703125,140.57759826238893L195.83437500000002,140.87272676631287L196.29843749999998,141.05703770510132L196.7625,140.94263266504325L197.2265625,141.0676153295613L197.69062499999998,140.9858910957637L198.1546875,140.88320077937456L198.61875,141.40656282917897L199.0828125,140.83601689478408L199.546875,141.08647811713394L200.0109375,141.57173934813434L200.475,141.40253473606816L200.9390625,141.8802300746648L201.40312500000002,142.0056484667252L201.8671875,142.17736029953141L202.33125,141.90892507576626L202.79531250000002,142.1520907214449L203.259375,142.47269208129336L203.72343750000002,142.36605432459277L204.18749999999997,142.64102031052877L204.65156249999998,142.76166130730698L205.115625,143.00241103709885L205.57968749999998,143.2166915093512L206.04375,143.31318978451142L206.5078125,142.9431446312812L206.97187499999998,142.9323262729884L207.4359375,143.61959875250434L207.9,143.48293334509583L208.3640625,143.44962264240993L208.828125,143.61008668192588L209.2921875,143.55245800166347L209.75625,143.78726886231206L210.2203125,144.0171605021864L210.68437500000002,144.19741825180822L211.1484375,144.20823439852393L211.6125,144.34742158210054L212.07656250000002,144.52129897698137L212.540625,144.62794988668404L213.00468750000002,144.35309788881693L213.46875000000003,144.6702881305264L213.93281249999998,144.0934973247339L214.396875,144.70752654813845L214.86093749999998,144.92137146525724L215.325,145.04489443836675L215.7890625,145.17917445113375L216.25312499999998,145.47567729890955L216.7171875,145.25958569491274L217.18125,144.88681595763728L217.6453125,145.41287856841782L218.109375,145.80543592896876L218.5734375,145.75986346147008L219.0375,145.96247881865335L219.5015625,145.7925822953604L219.96562500000002,146.16769178142576L220.4296875,146.36456480120245L220.89375,146.5544868509557L221.35781250000002,146.32735987038205L221.82187499999998,146.27042440004712L222.2859375,146.63171284291047L222.75,146.58430620205507L223.21406249999998,146.48279082444208L223.678125,146.92015789657063L224.1421875,147.08191207203078L224.60625,147.07009051641595L225.0703125,147.58452825460026L225.534375,147.51059811106867L225.9984375,147.11013272497166L226.4625,147.19063073614734L226.9265625,147.16147926743162L227.390625,147.04420966898778L227.8546875,147.1955698191844L228.31875,147.6955702784763L228.7828125,148.05537026857334L229.24687500000002,148.36159605713596L229.7109375,148.49495509334642L230.175,147.91865900307926L230.63906250000002,147.70745964193904L231.10312499999998,147.1374215932273L231.5671875,147.792819421765L232.03125,148.42886425007717L232.49531249999998,148.96152400669328L232.959375,148.74772569735782L233.4234375,148.93827564131098L233.8875,149.3481994546108L234.3515625,149.42881717705285L234.815625,149.6343742536735L235.2796875,150.15630253228028L235.74375,150.16221435329985L236.20781250000002,149.86910663630655L236.671875,149.75372652381495L237.1359375,149.85091527476536L237.60000000000002,150.2387635328124L238.0640625,150.05514108806986L238.52812500000002,149.8032133624616L238.99218749999997,149.78500499564024L239.45624999999998,150.29130892570114L239.9203125,150.59235207100792L240.38437499999998,150.79031023028816L240.8484375,150.8627692824475L241.3125,150.56441218432832L241.77656249999998,150.89760177056763L242.240625,151.0461938640901L242.7046875,151.47086409913257L243.16875,151.3433338718275L243.6328125,150.85553837626227L244.096875,150.47076951855934L244.5609375,150.63815501242314L245.025,150.58312634121495L245.48906250000002,150.55558756394944L245.953125,150.75571287623393L246.4171875,151.61725629810033L246.88125000000002,151.89943953637587L247.3453125,151.54338005192025L247.80937500000002,151.49646017826493L248.27343750000003,151.01377255301355L248.73749999999998,151.56360329302194L249.2015625,152.00016706652667L249.66562499999998,152.0187590729862L250.1296875,152.1321621435792L250.59375,152.1187702779175L251.05781249999998,152.27114307016788L251.521875,152.15936345752655L251.9859375,152.6741662024706L252.45,152.69249839778237L252.9140625,153.07326249813514L253.378125,152.88343160038116L253.8421875,153.38718695181836L254.30625,153.043217441234L254.77031250000002,152.67048643224467" style="fill: none;" fill="none"></path></g></g></g></g><g opacity="0.2"><g><g><g><path stroke="rgb(255, 112, 67)" stroke-width="2px" d="M28.3078125,-0.05023754726759577L28.771875,8.658385233445564L29.2359375,15.32349744710052L29.700000000000003,23.13382241942662L30.1640625,26.781122749501982L30.628125,31.925007386641045L31.092187499999998,35.191904371434966L31.55625,37.777132836255134L32.0203125,40.697673732584136L32.484375,44.08325386047361L32.9484375,45.50450981747017L33.4125,47.02858270298348L33.8765625,49.081979513168314L34.340625,50.49561582912095L34.8046875,53.17107434706253L35.268750000000004,54.67103444446214L35.7328125,56.27583694458006L36.196875,57.05101485685867L36.660937499999996,58.895643147555234L37.125,59.70279461687259L37.589062500000004,61.27055987444788L38.053124999999994,62.39508386091751L38.5171875,63.85400399294764L38.98125,65.33170798691833L39.4453125,66.17893491008063L39.909375000000004,66.7303943742405L40.373437499999994,66.13654462857677L40.8375,69.17793881893157L41.3015625,69.74598788131364L41.765625,71.21915867111898L42.229687500000004,70.09391130100595L42.693749999999994,72.66402104767883L43.1578125,73.27359233119269L43.621875,73.84578879313034L44.0859375,73.60540840842505L44.550000000000004,75.65432024002074L45.014062499999994,74.95685784383251L45.478125,75.76130868088113L45.9421875,76.28108394145964L46.40625,76.90068614482878L46.8703125,77.23611914027818L47.334375,76.82540602033787L47.7984375,79.16868676922536L48.2625,80.0741701884703L48.7265625,80.08379119092767L49.190625,81.28863487460394L49.6546875,80.1516928022558L50.11875,79.94861490076237L50.5828125,82.20185849883337L51.04687499999999,82.77181247147645L51.5109375,83.02629883722824L51.975,83.60922548987647L52.4390625,84.63797348195855L52.903125,85.02242777564307L53.36718750000001,84.1432996338064L53.83125,85.7482950362292L54.2953125,85.62399361350317L54.759375,86.36454556205054L55.2234375,86.46024921807374L55.6875,87.79043117436494L56.1515625,87.30048343268305L56.615625,87.28464133089237L57.0796875,87.87176360867238L57.54375,88.21534672650422L58.0078125,88.70657244595613L58.471875,89.37432788718827L58.9359375,88.99879532510583L59.400000000000006,89.48442687771535L59.864062499999996,90.11931658874857L60.328125,90.69831285693427L60.7921875,90.75931821086188L61.25625,90.71550527485931L61.720312500000006,91.61778169328515L62.184374999999996,91.31560023264448L62.6484375,92.58053298430006L63.1125,91.97081702405755L63.5765625,92.01730647954071L64.040625,92.21481432697988L64.5046875,91.73234154961324L64.96875,93.16247101263565L65.4328125,92.6135192784396L65.896875,93.51078023693776L66.3609375,93.62763080813666L66.825,95.80161567167801L67.2890625,94.75304696776648L67.753125,95.33783030509947L68.2171875,95.17453850399363L68.68125,95.84832214225419L69.1453125,95.83751961317928L69.609375,95.95200713114303L70.0734375,95.13692255453628L70.53750000000001,96.53736917539074L71.0015625,96.81305068189447L71.465625,97.53515634753485L71.92968750000001,98.38320310549301L72.39375,97.11390593918884L72.8578125,97.30369769443162L73.32187499999999,98.55117278749292L73.7859375,97.21573424339293L74.25,98.14955018867143L74.7140625,98.07902028343892L75.17812500000001,97.70264377377248L75.6421875,98.42732950774105L76.10624999999999,99.90857808156444L76.5703125,98.71981762755998L77.034375,99.7932466160167L77.4984375,99.66942744905298L77.9625,99.8171665018255L78.4265625,99.80887170271438L78.890625,100.22623995217407L79.3546875,101.2487186193466L79.81875000000001,101.64026207273655L80.2828125,99.55272155458276L80.74687499999999,102.6712766669013L81.2109375,101.83716710047287L81.675,103.80074377493423L82.1390625,102.29381508176975L82.603125,103.07989197427575L83.0671875,101.3740086663853L83.53125,103.00355088710783L83.99531250000001,103.73250458457251L84.45937500000001,104.24651688879185L84.92343749999999,104.26332350210708L85.38749999999999,103.93502789193933L85.8515625,103.66197467934L86.315625,104.49642182480204L86.7796875,105.00556334582241L87.24375,105.40356902642681L87.7078125,105.06914876807816L88.171875,105.20374635132873L88.63593750000001,105.03623481230301L89.10000000000001,106.16174742308529L89.56406249999999,103.1866151744669L90.02812499999999,106.47704624045976L90.4921875,106.19511952183461L90.95625,106.72977237267925L91.4203125,106.64250819249584L91.884375,108.0853933204304L92.3484375,106.63852958245708L92.8125,107.81800661303778L93.27656250000001,108.74468517303465L93.740625,108.14921987056731L94.20468749999999,108.53427698395467L94.66875,109.33872782100327L95.1328125,107.62705744396555L95.596875,108.34395474737339L96.0609375,109.130586234006L96.525,110.0176957087083L96.9890625,109.64814311807804L97.453125,109.05489619211716L97.91718750000001,109.34605810858984L98.38125,110.69557852094822L98.84531249999999,109.94193332845514L99.309375,111.23589787699957L99.7734375,110.40687610886312L100.2375,109.99794733524321L100.70156250000001,111.2729833451184L101.165625,110.46081641587341L101.6296875,111.85586177219041L102.09374999999999,112.02303573218258L102.5578125,111.58531628955491L103.021875,111.81752243908966L103.48593749999999,111.69334158030422L103.95,112.34653289751571L104.4140625,113.12653336741705L104.878125,112.76083882288498L105.34218750000001,113.97781123898244L105.80625,113.21910236098547L106.2703125,113.88808755441143L106.73437500000001,112.89758244427765L107.1984375,114.80208278786051L107.6625,113.54503491791809L108.12656249999999,115.38566048578781L108.590625,115.13057130033319L109.0546875,114.94210574843665L109.51875,114.64684465798462L109.98281250000001,115.91918003559111L110.446875,115.21284413337706L110.91093749999999,115.47649335861205L111.375,115.82682805711572L111.8390625,116.07340542836623L112.303125,115.8624426451596L112.7671875,115.69382191788065L113.23125,115.68627461520107L113.6953125,116.11193766377187L114.159375,116.29075810042293L114.62343750000001,117.87983906269072L115.0875,117.53336241028524L115.55156249999999,117.87205063212998L116.015625,117.64454647627743L116.4796875,117.62168755314565L116.94375,118.0433478788896L117.4078125,117.5789355798201L117.871875,117.55036192590539L118.3359375,116.77166354656218L118.80000000000001,117.99683431061828L119.26406250000001,118.36332457715814L119.72812499999999,118.66198557073419L120.19218749999999,118.52135979045518L120.65625,119.05661546100266L121.1203125,118.13618211312728L121.584375,119.31968597932295L122.0484375,120.5900441083041L122.5125,120.58391946012323L122.9765625,120.3542210405523L123.44062500000001,120.04075479507445L123.90468750000001,120.18547974933274L124.36874999999999,120.3505076711828L124.83281249999999,120.80985628474839L125.296875,121.18907810341227L125.7609375,120.03284580057316L126.225,121.57049418579447L126.6890625,121.08365699377926L127.153125,121.21637377955695L127.6171875,121.84689907594161L128.08125,121.81113981116899L128.5453125,121.41720919175582L129.009375,121.31494685736568L129.47343750000002,121.96705309911208L129.9375,122.00544065778904L130.4015625,122.15223931182511L130.865625,123.43380988727915L131.3296875,123.69683218002318L131.79375,122.37735630165446L132.2578125,122.42020472613247L132.721875,123.17845546115525L133.1859375,123.41104741529983L133.65,123.70160651206969L134.11406250000002,124.36465995961969L134.578125,123.5361204472455L135.04218749999998,124.8405740586194L135.50625,124.21935629844664L135.9703125,124.08044252612372L136.434375,124.39265490661967L136.8984375,123.47130527279592L137.3625,125.29273706132714L137.8265625,124.18750330534847L138.290625,123.75166466019368L138.75468750000002,125.15203894268382L139.21875,124.6955356381156L139.6828125,124.84231017936357L140.146875,125.70894789695738L140.6109375,126.08691585063933L141.07500000000002,124.98365934328598L141.5390625,125.76710794188757L142.003125,126.94084612889723L142.46718750000002,127.01330505717881L142.93125,126.18823778629302L143.39531250000002,125.65303034132175L143.85937500000003,127.49871959469533L144.32343749999998,126.37031344933943L144.7875,126.54590277238326L145.25156249999998,127.79031554135408L145.715625,127.47793437134135L146.1796875,127.49290841275995L146.64374999999998,128.59006438472053L147.1078125,127.65525981512936L147.571875,127.73355403813447L148.0359375,127.75011952356857L148.5,128.45580438050357L148.9640625,129.33235245401207L149.428125,128.5680252963846L149.8921875,129.5417720187794L150.35625000000002,128.33171997287056L150.8203125,129.37775683403012L151.284375,129.0630608363585L151.74843750000002,129.81364370476115L152.21249999999998,130.1359111179005L152.6765625,129.1411621570587L153.140625,129.15370080687782L153.60468749999998,130.51590454578397L154.06875,129.5300049781799L154.5328125,129.27339668707413L154.996875,130.09930790554392L155.4609375,131.35987624255094L155.925,130.03410692648453L156.3890625,130.7751893563704L156.853125,129.72847733714363L157.3171875,131.05800824815574L157.78125,131.32874663309616L158.2453125,128.8503378196196L158.709375,131.2202631993727L159.1734375,130.39370093562385L159.63750000000002,131.8105442523956L160.1015625,132.67448133772066L160.565625,131.99529643492264L161.02968750000002,133.0893900827928L161.49374999999998,132.30360254374418L161.9578125,132.2821903878992L162.421875,132.68627249110827L162.88593749999998,131.94207951155576L163.35,131.92252404039553L163.8140625,132.11335264552721L164.278125,132.07390412417325L164.7421875,132.81633687019345L165.20625,132.72085022926328L165.6703125,133.6414523666555L166.134375,133.06520495631477L166.59843750000002,132.7821931622245L167.0625,133.9749081134796L167.5265625,132.98920144818044L167.99062500000002,132.60696553100237L168.4546875,133.48129522800443L168.91875000000002,133.70607463880017L169.38281249999997,133.31812399083915L169.84687499999998,132.8812484957955L170.3109375,134.42347831075838L170.77499999999998,134.60808581655672L171.2390625,133.44370339133522L171.703125,133.8634829196063L172.16718749999998,134.09021546623921L172.63125,135.86959455230019L173.0953125,134.18083132397044L173.559375,135.7020347876982L174.0234375,135.55506734414533L174.4875,135.4861288829283L174.9515625,135.34784204309634L175.415625,135.45422766425392L175.87968750000002,136.2628741264343L176.34375,135.42488240111956L176.8078125,135.71527270837262L177.27187500000002,136.06642724167216L177.7359375,135.62185976722023L178.20000000000002,136.47829777544192L178.66406250000003,136.06980303200808L179.12812499999998,137.11506828394803L179.5921875,135.87521283193067L180.05624999999998,136.57407376982948L180.5203125,136.6849443695762L180.984375,135.6700853434476L181.44843749999998,137.67313465205106L181.9125,136.7704483162273L182.3765625,137.45317779887804L182.840625,137.9138285030018L183.3046875,137.6568585200743L183.76875,136.78954564441332L184.2328125,138.62173173644325L184.696875,137.91091085564005L185.16093750000002,137.63407193530688L185.625,137.66057188944382L186.0890625,137.37514881654218L186.55312500000002,138.7244281010194L187.01718749999998,138.09038233757016L187.48125,139.65122722495684L187.9453125,138.82984921065244L188.40937499999998,138.30361172285947L188.8734375,139.27499539201906L189.3375,138.57210761850527L189.8015625,138.62959250536832L190.265625,139.2938998179002L190.7296875,139.20740724693644L191.19375,139.79436073519966L191.6578125,138.34998061440206L192.121875,140.26757420193064L192.5859375,139.88950979709622L193.05,139.98535812984812L193.5140625,140.0641104958274L193.978125,139.63470996509898L194.44218750000002,140.9804928952997L194.90625,141.3389536033977L195.3703125,140.401279612021L195.83437500000002,141.31541952219877L196.29843749999998,141.33350411328402L196.7625,140.77102510495618L197.2265625,141.25508932633832L197.69062499999998,140.86330474506724L198.1546875,140.72916530479083L198.61875,142.19160590388557L199.0828125,139.9801979931918L199.546875,141.4621699506586L200.0109375,142.29963119463486L200.475,141.14872781796888L200.9390625,142.59677308255974L201.40312500000002,142.1937760548158L201.8671875,142.43492804874072L202.33125,141.50627224011853L202.79531250000002,142.5168391899629L203.259375,142.953594121066L203.72343750000002,142.2060976895419L204.18749999999997,143.05346928943285L204.65156249999998,142.94262280247426L205.115625,143.36353563178668L205.57968749999998,143.53811221772972L206.04375,143.45793719725174L206.5078125,142.38807690143582L206.97187499999998,142.9160987355492L207.4359375,144.65050747177816L207.9,143.27793523398313L208.3640625,143.39965658838096L208.828125,143.85078274119982L209.2921875,143.4660149812698L209.75625,144.13948515328494L210.2203125,144.36199796199796L210.68437500000002,144.46780487624082L211.1484375,144.22445861859754L211.6125,144.55620235746554L212.07656250000002,144.78211506930265L212.540625,144.78792625123802L213.00468750000002,143.94081989201632L213.46875000000003,145.14607349309054L213.93281249999998,143.22831111604515L214.396875,145.62857038324526L214.86093749999998,145.24213884093544L215.325,145.23017889803103L215.7890625,145.3805944702842L216.25312499999998,145.92043157057327L216.7171875,144.9354482889175L217.18125,144.3276613517241L217.6453125,146.2019724845886L218.109375,146.3942719697952L218.5734375,145.691504760222L219.0375,146.26640185442838L219.5015625,145.53773751042104L219.96562500000002,146.7303560105237L220.4296875,146.6598743308674L220.89375,146.83936992558566L221.35781250000002,145.98666939952156L221.82187499999998,146.1850211945447L222.2859375,147.1736455072056L222.75,146.5131962407719L223.21406249999998,146.33051775802264L223.678125,147.5762085047635L224.1421875,147.32454333522102L224.60625,147.0523581829938L225.0703125,148.35618486187673L225.534375,147.39970289577136L225.9984375,146.50943464582613L226.4625,147.31137775291094L226.9265625,147.1177520643581L227.390625,146.86830527132204L227.8546875,147.42261004447934L228.31875,148.44557096741414L228.7828125,148.59507025371897L229.24687500000002,148.82093473997983L229.7109375,148.69499364766207L230.175,147.05421486767855L230.63906250000002,147.39066060022873L231.10312499999998,146.28236452015963L231.5671875,148.77591616457156L232.03125,149.38293149254537L232.49531249999998,149.7605136416175L232.959375,148.42702823335472L233.4234375,149.22410055724058L233.8875,149.96308517456052L234.3515625,149.5497437607158L234.815625,149.94270986860445L235.2796875,150.93919495019045L235.74375,150.17108208482912L236.20781250000002,149.42944506081668L236.671875,149.58065635507754L237.1359375,149.996698401191L237.60000000000002,150.820535919883L238.0640625,149.779707420956L238.52812500000002,149.42532177404922L238.99218749999997,149.7576924454082L239.45624999999998,151.05076482079244L239.9203125,151.04391678896818L240.38437499999998,151.08724746920845L240.8484375,150.97145786068654L241.3125,150.11687653714958L241.77656249999998,151.3973861499266L242.240625,151.2690820043737L242.7046875,152.1078694516962L243.16875,151.1520385308699L243.6328125,150.12384513291445L244.096875,149.89361623200503L244.5609375,150.8892332532189L245.025,150.5005833344026L245.48906250000002,150.51427939805117L245.953125,151.05590084466067L246.4171875,152.90957143089986L246.88125000000002,152.32271439378908L247.3453125,151.00929082523692L247.80937500000002,151.42608036778188L248.27343750000003,150.28974111513656L248.73749999999998,152.38834940303454L249.2015625,152.65501272678372L249.66562499999998,152.04664708267558L250.1296875,152.3022667494687L250.59375,152.0986824794249L251.05781249999998,152.49970225854352L251.521875,151.99169403856448L251.9859375,153.44637031988663L252.45,152.7199966907501L252.9140625,153.64440864866427L253.378125,152.59868525375018L253.8421875,154.14281997897407L254.30625,152.52726317535746L254.77031250000002,152.1113899187608" style="fill: none;" fill="none"></path></g></g></g></g></g></g><g transform="translate(51, 178)" clip-path="url(#clip_1)"><clipPath id="clip_1"><rect width="278" height="22"></rect></clipPath><g><g><line x1="0" y1="0" x2="0" y2="5" style="visibility: inherit;" fill="rgb(0, 0, 0)" stroke="rgb(204, 204, 204)" stroke-width="1px"></line><line x1="23.203125" y1="0" x2="23.203125" y2="5" style="visibility: inherit;" fill="rgb(0, 0, 0)" stroke="rgb(204, 204, 204)" stroke-width="1px"></line><line x1="46.40625" y1="0" x2="46.40625" y2="5" style="visibility: inherit;" fill="rgb(0, 0, 0)" stroke="rgb(204, 204, 204)" stroke-width="1px"></line><line x1="69.609375" y1="0" x2="69.609375" y2="5" style="visibility: inherit;" fill="rgb(0, 0, 0)" stroke="rgb(204, 204, 204)" stroke-width="1px"></line><line x1="92.8125" y1="0" x2="92.8125" y2="5" style="visibility: inherit;" fill="rgb(0, 0, 0)" stroke="rgb(204, 204, 204)" stroke-width="1px"></line><line x1="116.015625" y1="0" x2="116.015625" y2="5" style="visibility: inherit;" fill="rgb(0, 0, 0)" stroke="rgb(204, 204, 204)" stroke-width="1px"></line><line x1="139.21875" y1="0" x2="139.21875" y2="5" style="visibility: inherit;" fill="rgb(0, 0, 0)" stroke="rgb(204, 204, 204)" stroke-width="1px"></line><line x1="162.421875" y1="0" x2="162.421875" y2="5" style="visibility: inherit;" fill="rgb(0, 0, 0)" stroke="rgb(204, 204, 204)" stroke-width="1px"></line><line x1="185.625" y1="0" x2="185.625" y2="5" style="visibility: inherit;" fill="rgb(0, 0, 0)" stroke="rgb(204, 204, 204)" stroke-width="1px"></line><line x1="208.828125" y1="0" x2="208.828125" y2="5" style="visibility: inherit;" fill="rgb(0, 0, 0)" stroke="rgb(204, 204, 204)" stroke-width="1px"></line><line x1="232.03125" y1="0" x2="232.03125" y2="5" style="visibility: inherit;" fill="rgb(0, 0, 0)" stroke="rgb(204, 204, 204)" stroke-width="1px"></line><line x1="255.234375" y1="0" x2="255.234375" y2="5" style="visibility: inherit;" fill="rgb(0, 0, 0)" stroke="rgb(204, 204, 204)" stroke-width="1px"></line><line x1="278.4375" y1="0" x2="278.4375" y2="5" style="visibility: inherit;" fill="rgb(0, 0, 0)" stroke="rgb(204, 204, 204)" stroke-width="1px"></line></g><g transform="translate(0, 8)"><text x="0" y="0" dx="0em" dy="0.95em" style="text-anchor: middle; visibility: hidden; font-family: Roboto, sans-serif; font-size: 12px; font-weight: 200;" fill="rgb(50, 49, 63)" stroke="none" stroke-width="1px">-50</text><text x="23.203125" y="0" dx="0em" dy="0.95em" style="text-anchor: middle; visibility: inherit; font-family: Roboto, sans-serif; font-size: 12px; font-weight: 200;" fill="rgb(50, 49, 63)" stroke="none" stroke-width="1px">0</text><text x="46.40625" y="0" dx="0em" dy="0.95em" style="text-anchor: middle; visibility: hidden; font-family: Roboto, sans-serif; font-size: 12px; font-weight: 200;" fill="rgb(50, 49, 63)" stroke="none" stroke-width="1px">50</text><text x="69.609375" y="0" dx="0em" dy="0.95em" style="text-anchor: middle; visibility: inherit; font-family: Roboto, sans-serif; font-size: 12px; font-weight: 200;" fill="rgb(50, 49, 63)" stroke="none" stroke-width="1px">100</text><text x="92.8125" y="0" dx="0em" dy="0.95em" style="text-anchor: middle; visibility: hidden; font-family: Roboto, sans-serif; font-size: 12px; font-weight: 200;" fill="rgb(50, 49, 63)" stroke="none" stroke-width="1px">150</text><text x="116.015625" y="0" dx="0em" dy="0.95em" style="text-anchor: middle; visibility: inherit; font-family: Roboto, sans-serif; font-size: 12px; font-weight: 200;" fill="rgb(50, 49, 63)" stroke="none" stroke-width="1px">200</text><text x="139.21875" y="0" dx="0em" dy="0.95em" style="text-anchor: middle; visibility: hidden; font-family: Roboto, sans-serif; font-size: 12px; font-weight: 200;" fill="rgb(50, 49, 63)" stroke="none" stroke-width="1px">250</text><text x="162.421875" y="0" dx="0em" dy="0.95em" style="text-anchor: middle; visibility: inherit; font-family: Roboto, sans-serif; font-size: 12px; font-weight: 200;" fill="rgb(50, 49, 63)" stroke="none" stroke-width="1px">300</text><text x="185.625" y="0" dx="0em" dy="0.95em" style="text-anchor: middle; visibility: hidden; font-family: Roboto, sans-serif; font-size: 12px; font-weight: 200;" fill="rgb(50, 49, 63)" stroke="none" stroke-width="1px">350</text><text x="208.828125" y="0" dx="0em" dy="0.95em" style="text-anchor: middle; visibility: inherit; font-family: Roboto, sans-serif; font-size: 12px; font-weight: 200;" fill="rgb(50, 49, 63)" stroke="none" stroke-width="1px">400</text><text x="232.03125" y="0" dx="0em" dy="0.95em" style="text-anchor: middle; visibility: hidden; font-family: Roboto, sans-serif; font-size: 12px; font-weight: 200;" fill="rgb(50, 49, 63)" stroke="none" stroke-width="1px">450</text><text x="255.234375" y="0" dx="0em" dy="0.95em" style="text-anchor: middle; visibility: inherit; font-family: Roboto, sans-serif; font-size: 12px; font-weight: 200;" fill="rgb(50, 49, 63)" stroke="none" stroke-width="1px">500</text><text x="278.4375" y="0" dx="0em" dy="0.95em" style="text-anchor: middle; visibility: hidden; font-family: Roboto, sans-serif; font-size: 12px; font-weight: 200;" fill="rgb(50, 49, 63)" stroke="none" stroke-width="1px">550</text></g><line x1="0" y1="0" x2="278.4375" y2="0" fill="rgb(0, 0, 0)" stroke="rgb(204, 204, 204)" stroke-width="1px"></line></g></g></g></g></svg>